<svg xmlns="http://www.w3.org/2000/svg" id="e9A4nfHQKJi1" shape-rendering="geometricPrecision" text-rendering="geometricPrecision" viewBox="0 0 125 125"><style>@keyframes e9A4nfHQKJi2_tr__tr{0%,80%{transform:translate(64.433959px,46.019786px) rotate(0deg)}96%,to{transform:translate(64.433959px,46.019786px) rotate(30deg)}}@keyframes e9A4nfHQKJi2_ts__ts{0%,80%,96%,to{transform:scale(0,0)}88%{transform:scale(2,2)}}@keyframes e9A4nfHQKJi10_tr__tr{0%,36%{transform:translate(71.807391px,80.278035px) rotate(0deg)}52%,to{transform:translate(71.807391px,80.278035px) rotate(30deg)}}@keyframes e9A4nfHQKJi10_ts__ts{0%,36%,52%,to{transform:scale(0,0)}44%{transform:scale(2,2)}}@keyframes e9A4nfHQKJi15_tr__tr{0%{transform:translate(22.680235px,57.565286px) rotate(0deg)}20%,to{transform:translate(22.680235px,57.565286px) rotate(30deg)}}@keyframes e9A4nfHQKJi15_ts__ts{0%,20%,to{transform:scale(0,0)}10%{transform:scale(3,3)}}</style><defs><radialGradient id="e9A4nfHQKJi3-fill" cx="0" cy="0" r=".5" gradientTransform="translate(.5 .5)" gradientUnits="objectBoundingBox" spreadMethod="pad"><stop id="e9A4nfHQKJi3-fill-0" offset="0%" stop-color="rgba(255,255,255,0.38)"/><stop id="e9A4nfHQKJi3-fill-1" offset="100%" stop-color="rgba(255,255,255,0)"/></radialGradient><radialGradient id="e9A4nfHQKJi4-fill" cx="0" cy="0" r="1" gradientTransform="matrix(1.4 -.3 2.7 12.8 95.6 68.7)" gradientUnits="userSpaceOnUse" spreadMethod="pad"><stop id="e9A4nfHQKJi4-fill-0" offset="0%" stop-color="#fff"/><stop id="e9A4nfHQKJi4-fill-1" offset="39.1%" stop-color="rgba(255,255,255,0.45)"/><stop id="e9A4nfHQKJi4-fill-2" offset="81.3%" stop-color="rgba(255,255,255,0)"/></radialGradient><radialGradient id="e9A4nfHQKJi5-fill" cx="0" cy="0" r="1" gradientTransform="matrix(.5 -1.3 12.2 4.6 95.3 69)" gradientUnits="userSpaceOnUse" spreadMethod="pad"><stop id="e9A4nfHQKJi5-fill-0" offset="0%" stop-color="#fff"/><stop id="e9A4nfHQKJi5-fill-1" offset="39.1%" stop-color="rgba(255,255,255,0.45)"/><stop id="e9A4nfHQKJi5-fill-2" offset="81.3%" stop-color="rgba(255,255,255,0)"/></radialGradient><radialGradient id="e9A4nfHQKJi6-fill" cx="0" cy="0" r="1" gradientTransform="matrix(-1 -1 9.7 -8.7 95.4 69.5)" gradientUnits="userSpaceOnUse" spreadMethod="pad"><stop id="e9A4nfHQKJi6-fill-0" offset="0%" stop-color="#fff"/><stop id="e9A4nfHQKJi6-fill-1" offset="39.1%" stop-color="rgba(255,255,255,0.45)"/><stop id="e9A4nfHQKJi6-fill-2" offset="81.3%" stop-color="rgba(255,255,255,0)"/></radialGradient><radialGradient id="e9A4nfHQKJi7-fill" cx="0" cy="0" r="1" gradientTransform="matrix(.7 -.6 6 6.6 95.5 69)" gradientUnits="userSpaceOnUse" spreadMethod="pad"><stop id="e9A4nfHQKJi7-fill-0" offset="0%" stop-color="#fff"/><stop id="e9A4nfHQKJi7-fill-1" offset="39.1%" stop-color="rgba(255,255,255,0.45)"/><stop id="e9A4nfHQKJi7-fill-2" offset="81.3%" stop-color="rgba(255,255,255,0)"/></radialGradient><radialGradient id="e9A4nfHQKJi8-fill" cx="0" cy="0" r="1" gradientTransform="matrix(-.2 -1 8.7 -1.4 95.4 69.2)" gradientUnits="userSpaceOnUse" spreadMethod="pad"><stop id="e9A4nfHQKJi8-fill-0" offset="0%" stop-color="#fff"/><stop id="e9A4nfHQKJi8-fill-1" offset="39.1%" stop-color="rgba(255,255,255,0.45)"/><stop id="e9A4nfHQKJi8-fill-2" offset="81.3%" stop-color="rgba(255,255,255,0)"/></radialGradient><radialGradient id="e9A4nfHQKJi9-fill" cx="0" cy="0" r="1" gradientTransform="matrix(-1 -.3 2.7 -8.4 95.7 69.5)" gradientUnits="userSpaceOnUse" spreadMethod="pad"><stop id="e9A4nfHQKJi9-fill-0" offset="0%" stop-color="#fff"/><stop id="e9A4nfHQKJi9-fill-1" offset="39.1%" stop-color="rgba(255,255,255,0.45)"/><stop id="e9A4nfHQKJi9-fill-2" offset="81.3%" stop-color="rgba(255,255,255,0)"/></radialGradient><radialGradient id="e9A4nfHQKJi11-fill" cx="0" cy="0" r=".5" gradientTransform="translate(.5 .5)" gradientUnits="objectBoundingBox" spreadMethod="pad"><stop id="e9A4nfHQKJi11-fill-0" offset="0%" stop-color="rgba(255,255,255,0.38)"/><stop id="e9A4nfHQKJi11-fill-1" offset="100%" stop-color="rgba(255,255,255,0)"/></radialGradient><radialGradient id="e9A4nfHQKJi12-fill" cx="0" cy="0" r="1" gradientTransform="matrix(.7 -.6 6 6.6 102.9 103.2)" gradientUnits="userSpaceOnUse" spreadMethod="pad"><stop id="e9A4nfHQKJi12-fill-0" offset="0%" stop-color="#fff"/><stop id="e9A4nfHQKJi12-fill-1" offset="39.1%" stop-color="rgba(255,255,255,0.45)"/><stop id="e9A4nfHQKJi12-fill-2" offset="81.3%" stop-color="rgba(255,255,255,0)"/></radialGradient><radialGradient id="e9A4nfHQKJi13-fill" cx="0" cy="0" r="1" gradientTransform="matrix(-.2 -1 8.7 -1.4 102.8 103.5)" gradientUnits="userSpaceOnUse" spreadMethod="pad"><stop id="e9A4nfHQKJi13-fill-0" offset="0%" stop-color="#fff"/><stop id="e9A4nfHQKJi13-fill-1" offset="39.1%" stop-color="rgba(255,255,255,0.45)"/><stop id="e9A4nfHQKJi13-fill-2" offset="81.3%" stop-color="rgba(255,255,255,0)"/></radialGradient><radialGradient id="e9A4nfHQKJi14-fill" cx="0" cy="0" r="1" gradientTransform="matrix(-1 -.3 2.7 -8.4 103 103.7)" gradientUnits="userSpaceOnUse" spreadMethod="pad"><stop id="e9A4nfHQKJi14-fill-0" offset="0%" stop-color="#fff"/><stop id="e9A4nfHQKJi14-fill-1" offset="39.1%" stop-color="rgba(255,255,255,0.45)"/><stop id="e9A4nfHQKJi14-fill-2" offset="81.3%" stop-color="rgba(255,255,255,0)"/></radialGradient><radialGradient id="e9A4nfHQKJi16-fill" cx="0" cy="0" r=".5" gradientTransform="translate(.5 .5)" gradientUnits="objectBoundingBox" spreadMethod="pad"><stop id="e9A4nfHQKJi16-fill-0" offset="0%" stop-color="rgba(255,255,255,0.38)"/><stop id="e9A4nfHQKJi16-fill-1" offset="100%" stop-color="rgba(255,255,255,0)"/></radialGradient><radialGradient id="e9A4nfHQKJi17-fill" cx="0" cy="0" r="1" gradientTransform="matrix(.6 -.1 1.2 5.6 54 80.5)" gradientUnits="userSpaceOnUse" spreadMethod="pad"><stop id="e9A4nfHQKJi17-fill-0" offset="0%" stop-color="#fff"/><stop id="e9A4nfHQKJi17-fill-1" offset="39.1%" stop-color="rgba(255,255,255,0.45)"/><stop id="e9A4nfHQKJi17-fill-2" offset="81.3%" stop-color="rgba(255,255,255,0)"/></radialGradient><radialGradient id="e9A4nfHQKJi18-fill" cx="0" cy="0" r="1" gradientTransform="matrix(.2 -.6 5.3 2 53.8 80.6)" gradientUnits="userSpaceOnUse" spreadMethod="pad"><stop id="e9A4nfHQKJi18-fill-0" offset="0%" stop-color="#fff"/><stop id="e9A4nfHQKJi18-fill-1" offset="39.1%" stop-color="rgba(255,255,255,0.45)"/><stop id="e9A4nfHQKJi18-fill-2" offset="81.3%" stop-color="rgba(255,255,255,0)"/></radialGradient><radialGradient id="e9A4nfHQKJi19-fill" cx="0" cy="0" r="1" gradientTransform="matrix(-.4 -.5 4.2 -3.8 53.9 80.8)" gradientUnits="userSpaceOnUse" spreadMethod="pad"><stop id="e9A4nfHQKJi19-fill-0" offset="0%" stop-color="#fff"/><stop id="e9A4nfHQKJi19-fill-1" offset="39.1%" stop-color="rgba(255,255,255,0.45)"/><stop id="e9A4nfHQKJi19-fill-2" offset="81.3%" stop-color="rgba(255,255,255,0)"/></radialGradient></defs><g style="animation:e9A4nfHQKJi2_tr__tr 5000ms linear infinite normal forwards" transform="translate(64.4 46)"><g style="animation:e9A4nfHQKJi2_ts__ts 5000ms linear infinite normal forwards" transform="scale(0)"><g transform="translate(-95.7 -69.2)"><ellipse fill="url(#e9A4nfHQKJi3-fill)" stroke-width="0" rx="7" ry="6.8" transform="matrix(1 0 0 1 95.8 69.5)"/><path fill="url(#e9A4nfHQKJi4-fill)" d="M94.5 69.5c-1.3-6.2-1.9-11.7-1.1-11.8s2.4 4.7 3.6 11.1c1.3 6.3 1.9 11.7 1.1 11.9s-2.4-4.8-3.6-11.2Z" style="mix-blend-mode:color-dodge"/><path fill="url(#e9A4nfHQKJi5-fill)" d="M95.3 70.4c-6-2.2-10.8-4.7-10.5-5.4s5.3.5 11.3 3c6 2.2 10.9 4.6 10.6 5.3-.2.8-5.3-.5-11.4-3Z" style="mix-blend-mode:color-dodge"/><path fill="url(#e9A4nfHQKJi6-fill)" d="M96.6 70c-4.7 4.3-9 7.5-9.6 7s2.9-4.5 7.9-8.8c4.7-4.2 9-7.4 9.6-6.9.6.6-3 4.5-7.9 8.8Z" style="mix-blend-mode:color-dodge"/><path fill="url(#e9A4nfHQKJi7-fill)" d="M95.1 69.7c-2.9-3.1-5-6.1-4.7-6.5.4-.4 3 2 6 5.4 2.9 3.1 5 6.1 4.6 6.5s-3-2-5.9-5.4Z" style="mix-blend-mode:color-dodge"/><path fill="url(#e9A4nfHQKJi8-fill)" d="M96 70c-4.3.7-8 1-8.1.4s3.3-1.5 7.7-2c4.2-.8 8-1 8-.5s-3.3 1.5-7.7 2.1Z" style="mix-blend-mode:color-dodge"/><path fill="url(#e9A4nfHQKJi9-fill)" d="M96.6 69.4c-1.3 4.1-2.8 7.5-3.4 7.3-.5-.1.3-3.6 1.7-7.8 1.3-4 2.8-7.5 3.4-7.3s-.3 3.6-1.7 7.8Z" style="mix-blend-mode:color-dodge"/></g></g></g><g style="animation:e9A4nfHQKJi10_tr__tr 5000ms linear infinite normal forwards" transform="translate(71.8 80.3)"><g style="animation:e9A4nfHQKJi10_ts__ts 5000ms linear infinite normal forwards" transform="scale(0)"><g transform="translate(-103.1 -103.4)"><ellipse fill="url(#e9A4nfHQKJi11-fill)" stroke-width="0" rx="7" ry="6.8" transform="matrix(.9 0 0 .9 103.2 103.4)"/><path fill="url(#e9A4nfHQKJi12-fill)" d="M102.5 104c-2.9-3.2-5-6.2-4.7-6.5.4-.4 3 2 6 5.3 2.8 3.2 5 6.2 4.6 6.6-.4.3-3-2-5.9-5.4Z" style="mix-blend-mode:color-dodge"/><path fill="url(#e9A4nfHQKJi13-fill)" d="M103.3 104.2c-4.3.8-8 1-8 .5-.2-.6 3.2-1.5 7.7-2.1 4.2-.8 7.9-1 8-.5.1.6-3.3 1.5-7.7 2.1Z" style="mix-blend-mode:color-dodge"/><path fill="url(#e9A4nfHQKJi14-fill)" d="M104 103.6c-1.4 4.2-2.9 7.5-3.4 7.4-.5-.2.2-3.6 1.7-7.8 1.3-4.1 2.8-7.5 3.3-7.4.5.2-.2 3.7-1.7 7.8Z" style="mix-blend-mode:color-dodge"/></g></g></g><g style="animation:e9A4nfHQKJi15_tr__tr 5000ms linear infinite normal forwards" transform="translate(22.7 57.6)"><g style="animation:e9A4nfHQKJi15_ts__ts 5000ms linear infinite normal forwards" transform="scale(0)"><g transform="translate(-54 -80.7)"><ellipse fill="url(#e9A4nfHQKJi16-fill)" stroke-width="0" rx="7" ry="6.8" transform="matrix(.7 0 0 .6 54 80.7)"/><path fill="url(#e9A4nfHQKJi17-fill)" d="M53.5 80.8c-.6-2.7-.9-5-.5-5.1s1 2 1.5 4.9c.6 2.7.9 5 .5 5.1-.3 0-1-2-1.5-4.9Z" style="mix-blend-mode:color-dodge"/><path fill="url(#e9A4nfHQKJi18-fill)" d="M53.8 81.2c-2.6-1-4.7-2-4.6-2.3s2.3.2 5 1.3c2.6 1 4.7 2 4.6 2.3s-2.3-.2-5-1.3Z" style="mix-blend-mode:color-dodge"/><path fill="url(#e9A4nfHQKJi19-fill)" d="M54.4 81.1c-2 1.9-4 3.2-4.2 3s1.3-2 3.4-3.8c2-1.9 4-3.2 4.2-3 .3.2-1.3 2-3.4 3.8Z" style="mix-blend-mode:color-dodge"/></g></g></g></svg>