<svg xmlns="http://www.w3.org/2000/svg" id="e9B2S7Qu85n1" shape-rendering="geometricPrecision" text-rendering="geometricPrecision" viewBox="0 0 250 250"><style>@keyframes e9B2S7Qu85n2_ts__ts{0%{transform:translate(125.006502px,125.527367px) scale(.4,.4);animation-timing-function:cubic-bezier(.42,0,.295,1.665)}8.888889%{transform:translate(125.006502px,125.527367px) scale(1,1);animation-timing-function:cubic-bezier(.42,0,.215,2)}88.888889%{transform:translate(125.006502px,125.527367px) scale(1,1);animation-timing-function:cubic-bezier(.42,0,.58,1)}to{transform:translate(125.006502px,125.527367px) scale(.4,.4)}}@keyframes e9B2S7Qu85n2_c_o{0%{opacity:0;animation-timing-function:cubic-bezier(.42,0,.58,1)}8.888889%{opacity:1;animation-timing-function:cubic-bezier(.42,0,.215,1.46)}88.888889%{opacity:1;animation-timing-function:cubic-bezier(.42,0,.58,1)}to{opacity:0}}@keyframes e9B2S7Qu85n3_to__to{0%{transform:translate(78.05681px,156.849289px)}20%{transform:translate(78.05681px,156.849289px);animation-timing-function:cubic-bezier(.42,0,.58,1)}55.555556%,to{transform:translate(78.05681px,158.849289px)}}@keyframes e9B2S7Qu85n3_ts__ts{0%{transform:scale(1,.14627)}6.666667%{transform:scale(1,.14627);animation-timing-function:cubic-bezier(.42,0,.58,1)}44.444444%,to{transform:scale(1,1)}}@keyframes e9B2S7Qu85n3_c_o{0%{opacity:0}11.111111%{opacity:0;animation-timing-function:cubic-bezier(.42,0,.58,1)}13.333333%,to{opacity:1}}@keyframes e9B2S7Qu85n5_to__to{0%,24.444444%{transform:translate(70.243571px,163.543278px)}75.555556%,to{transform:translate(70.743571px,162.943278px)}}@keyframes e9B2S7Qu85n5_ts__ts{0%,24.444444%{transform:rotate(7deg) scale(.7,.6)}75.555556%,to{transform:rotate(7deg) scale(1.2,1)}}@keyframes e9B2S7Qu85n6_ts__ts{0%{transform:translate(165.176907px,187.49915px) scale(1,.5)}2.222222%{transform:translate(165.176907px,187.49915px) scale(1,.5);animation-timing-function:cubic-bezier(.42,0,.58,1)}28.888889%,to{transform:translate(165.176907px,187.49915px) scale(1,1)}}@keyframes e9B2S7Qu85n6_c_o{0%,4.444444%{opacity:0}6.666667%,to{opacity:1}}@keyframes e9B2S7Qu85n8__m{0%,51.111111%{d:path("M121.525688,148.251203C121.225688,148.451203,121.995541,149.418486,122.341487,151.126593C122.341487,151.526593,122.485018,152.030467,122.685018,152.430467C123.185018,153.430467,123.4,154.8,123.4,155.9C123.5,156.4,123.4,156.9,123.2,157.2C122.9,157.5,122.5,157.7,121.7,157.7C120.9,157.7,120.5,157.7,120.1,157.4C119.8,157.2,119.5,156.9,119.4,156.5L119.4,155.1L119.915309,153.380659C120.215309,152.780659,120.359863,152.200491,120.62384,151.575186C120.887817,150.949881,121.808583,148.968309,121.308583,148.468309")}80%,to{d:path("M121.579771,148.296067C121.279771,148.496067,121.618055,147.725541,121.899771,149.476067C121.899771,149.876067,122.485018,152.030467,122.685018,152.430467C123.185018,153.430467,123.4,154.8,123.4,155.9C123.5,156.4,123.4,156.9,123.2,157.2C122.9,157.5,122.5,157.7,121.7,157.7C120.9,157.7,120.5,157.7,120.1,157.4C119.8,157.2,119.5,156.9,119.4,156.5L119.4,155.1L119.915309,153.380659C120.215309,152.780659,120.359863,152.200491,120.62384,151.575186C120.887817,150.949881,121.419771,148.956067,121.479771,148.296067")}}@keyframes e9B2S7Qu85n8_to__to{0%,37.777778%{transform:translate(165.137464px,179.871061px)}80%,to{transform:translate(165.137464px,185.871061px)}}@keyframes e9B2S7Qu85n8_ts__ts{0%,40%{transform:scale(.8,1)}53.333333%,82.222222%,to{transform:scale(1,1)}}@keyframes e9B2S7Qu85n14_c_o{0%,22.222222%{opacity:0}26.666667%,to{opacity:1}}@keyframes e9B2S7Qu85n19_s_w{0%,15.555556%,20%,to{stroke-width:15}}@keyframes e9B2S7Qu85n19_s_do{0%{stroke-dashoffset:186.16}6.666667%{stroke-dashoffset:186.16;animation-timing-function:cubic-bezier(.42,0,.58,1)}15.555556%,to{stroke-dashoffset:0}}@keyframes e9B2S7Qu85n24_s_do{0%{stroke-dashoffset:78.65}15.555556%{stroke-dashoffset:78.65;animation-timing-function:cubic-bezier(.42,0,.58,1)}22.222222%,to{stroke-dashoffset:0}}@keyframes e9B2S7Qu85n25_c_o{0%,22.222222%{opacity:0}26.666667%,to{opacity:1}}@keyframes e9B2S7Qu85n30_s_do{0%{stroke-dashoffset:276.48}24.444444%{stroke-dashoffset:276.48;animation-timing-function:cubic-bezier(.42,0,.58,1)}33.333333%,to{stroke-dashoffset:0}}@keyframes e9B2S7Qu85n31_c_o{0%,33.333333%{opacity:0}37.777778%,to{opacity:1}}@keyframes e9B2S7Qu85n32_c_o{0%,33.333333%{opacity:0}37.777778%,to{opacity:1}}@keyframes e9B2S7Qu85n37_s_do{0%,33.333333%{stroke-dashoffset:159.26}40%,to{stroke-dashoffset:0}}@keyframes e9B2S7Qu85n38_c_o{0%,40%{opacity:0}44.444444%,to{opacity:1}}@keyframes e9B2S7Qu85n39_c_o{0%,40%{opacity:0}44.444444%,to{opacity:1}}</style><defs><linearGradient id="e9B2S7Qu85n16-fill" x1="23.1" x2="92.5" y1="51.9" y2="136" gradientUnits="userSpaceOnUse" spreadMethod="pad"><stop id="e9B2S7Qu85n16-fill-0" offset="0%" stop-color="#00feb5"></stop><stop id="e9B2S7Qu85n16-fill-1" offset="100%" stop-color="#61e64f"></stop></linearGradient><linearGradient id="e9B2S7Qu85n21-fill" x1="23.1" x2="92.5" y1="51.9" y2="136" gradientUnits="userSpaceOnUse" spreadMethod="pad"><stop id="e9B2S7Qu85n21-fill-0" offset="0%" stop-color="#00feb5"></stop><stop id="e9B2S7Qu85n21-fill-1" offset="100%" stop-color="#61e64f"></stop></linearGradient><linearGradient id="e9B2S7Qu85n28-fill" x1="110.6" x2="110.6" y1="35.7" y2="132.5" gradientUnits="userSpaceOnUse" spreadMethod="pad"><stop id="e9B2S7Qu85n28-fill-0" offset="0%" stop-color="#00feb5"></stop><stop id="e9B2S7Qu85n28-fill-1" offset="80%" stop-color="#61e64f"></stop></linearGradient></defs><g style="animation:e9B2S7Qu85n2_ts__ts 4500ms linear infinite normal forwards" transform="matrix(0 0 0 0 125 126)"><g opacity="0" style="animation:e9B2S7Qu85n2_c_o 4500ms linear infinite normal forwards" transform="translate(-125 -126)"><g style="animation:e9B2S7Qu85n3_to__to 4500ms linear infinite normal forwards" transform="translate(78 157)"><g style="animation:e9B2S7Qu85n3_ts__ts 4500ms linear infinite normal forwards" transform="scale(1 0)"><g opacity="0" style="animation:e9B2S7Qu85n3_c_o 4500ms linear infinite normal forwards" transform="translate(-78 -159)"><path stroke="#000" stroke-width=".1" d="m69 167-1-1-1-1h-1v2l1 1-1 1-1 1-3-1a1 1 0 0 1 0-1v-2a5 5 0 0 0 1-1 3 3 0 0 0-1-2 24 24 0 0 0-5-5l3-1v1a77 77 0 0 0 19 9l12 1h7l1 4c-3 0-6 0-9 2l-3 1-1-1-1-1h-3l-3-1a35 35 0 0 1-1-1l-1-1h-3l-1-1v-1a1 1 0 0 0-1 0h-1s-1 1-2-1Z"></path><g style="animation:e9B2S7Qu85n5_to__to 4500ms linear infinite normal forwards" transform="translate(70 164)"><path stroke="#000" stroke-width=".1" d="m0-1 1 4 2 8v4l-1 2c-1 1-1 0-2-1l-1-3V2l1-3Z" style="animation:e9B2S7Qu85n5_ts__ts 4500ms linear infinite normal forwards"></path></g></g></g></g><g style="animation:e9B2S7Qu85n6_ts__ts 4500ms linear infinite normal forwards" transform="translate(165 188)"><g opacity="0" style="animation:e9B2S7Qu85n6_c_o 4500ms linear infinite normal forwards" transform="translate(-165 -187)"><path stroke="#000" d="M145 188h-1l5-2 37 2a60 60 0 0 0-4 4l-3 2-2 2h-2l-1-1h-5l-2 1-1 1c-1-4-8-4-11-3l-1 1-1-1-2-1a15 15 0 0 0-6-5Z"></path><g style="animation:e9B2S7Qu85n8_to__to 4500ms linear infinite normal forwards" transform="translate(165 180)"><g style="animation:e9B2S7Qu85n8_ts__ts 4500ms linear infinite normal forwards"><path stroke="#000" stroke-linecap="round" stroke-linejoin="round" d="M122 148v3l1 1v5l-1 1-2-1h-1v-2l1-2 1-1v-4" style="animation:e9B2S7Qu85n8__m 4500ms linear infinite normal forwards" transform="translate(-121 -140)"></path></g></g></g></g><path d="M205 161a39 39 0 0 1-17 26 42 42 0 0 1-24 7 44 44 0 0 1-30-10 39 39 0 0 1-5-4c0 3-1 7 1 12l2 8v1l-1 2-3 1h-1l-7-5-3-1-5-2v-1a95 95 0 0 0-18-3l-2-1h-3a2 2 0 0 1-1-3l6-6c4-3 6-7 7-10a59 59 0 0 1-26-3 47 47 0 0 1-12-7 38 38 0 0 1-15-16c-10-24 5-48 24-55a137 137 0 0 1 12-4c10-3 20-6 37-16a98 98 0 0 0 25-21l2-3 2-1 3 1 4 2v1a97 97 0 0 0 10 34 142 142 0 0 0 23 34l7 9a45 45 0 0 1 8 34Zm-71 20a48 48 0 0 0 14 6c11 3 24 3 34-4 19-13 19-40 8-55l-8-9c-6-8-14-17-22-35a93 93 0 0 1-11-34 93 93 0 0 1-27 23c-17 10-28 14-38 17l-11 3c-18 7-32 30-23 52a41 41 0 0 0 26 21 48 48 0 0 0 15 2c5 0 9-1 11-3 2-1 4 0 3 2s-1 0-1 0h1v1a32 32 0 0 1-9 16 99 99 0 0 1-5 5h1l16 2 15 7-1-6a32 32 0 0 1 1-19v-1c0-2 3-2 4 0a20 20 0 0 0 7 9Z"></path><path fill="#4a47ea" d="M191 128c-9-12-19-20-30-44a88 88 0 0 1-11-34v-1a88 88 0 0 1-28 24C99 87 87 88 73 93c-19 7-34 30-24 53 9 22 44 29 54 21h1v1a31 31 0 0 1-9 16 96 96 0 0 1-6 5 1 1 0 0 0 0 2c4 0 12 0 18 2 7 2 13 6 17 8h1v-1l-2-8a31 31 0 0 1 1-18v-1a1 1 0 0 1 1 0c5 13 37 26 57 12 21-13 21-41 9-57Z"></path><path fill="#948eff" d="M191 146c-3 27-23 36-37 35l4 3c12 2 33-3 35-31 1-4-2-8-2-7Zm-93 40c2-2 5-5 5-8l2-2 2-1-5 9c3 0 11 3 14 6v2s1 1 0 0v1a29 29 0 0 0-17-6s-3 0-2-1h1Zm63-95a72 72 0 0 1-13-35l-1 2a13 13 0 0 0-1 4 57 57 0 0 0 14 33c0 1 2-3 1-4Z"></path><path d="M98 114a9 9 0 0 0-2-2 11 11 0 0 0-4-7 8 8 0 0 0-5-1l-2 1h-6a44 44 0 0 0-5-51 39 39 0 0 0-26-15 17 17 0 0 0-7 0c-3 1-4 3-5 5v3a33 33 0 0 0-22 29c-1 8-1 15 1 21 1 4 2 7 5 11a32 32 0 0 0 11 9c11 8 20 4 25 4a20 20 0 0 0 9 6 29 29 0 0 0 13 4c17 2 17-5 18-7s6-4 2-10Zm-7 6c-1 1-1 4-4 5l-4 2-9-1c-11-1-15-5-17-8l-2-2-4 1h-2a25 25 0 0 1-19-4 30 30 0 0 1-9-8l-4-9c-3-10-2-29 6-38a29 29 0 0 1 15-10c0-1 0-5 4-7 5-1 24 1 34 20 9 17 3 33-2 41v1h-1l-2 2c0 1 1 2 7 2 9 1 12-3 15 3 3 5 0 8-2 10ZM58 59a25 25 0 0 0-3-2l-2 1-2 2c-2-1-9 0-15 4a17 17 0 0 0-7 12c-1 16 5 26 11 30 1 0 7 2 9 1s-3-4-4-14c-2-9-2-17 2-19 0-1 2-7 5-5 4 2 2 12 4 19v2c3 8 6 10 6 10v-1a30 30 0 0 0 5-18 29 29 0 0 0-9-22Zm3 37-2-5c-1-7 0-15-2-19l-4-5a5 5 0 0 0-4 0 6 6 0 0 0-3 2l-1 3c-2 2-3 6-3 9v13a29 29 0 0 0 4 10l1 1h-2l-4-1c-3-2-8-8-9-16a43 43 0 0 1 1-13c2-7 8-11 13-12l4-1 3-1h1l2-1a27 27 0 0 1 9 21c0 7-2 12-4 15Z" opacity="0" style="animation:e9B2S7Qu85n14_c_o 4500ms linear infinite normal forwards" transform="translate(45 46)"></path><g mask="url(#e9B2S7Qu85n17)"><path fill="url(#e9B2S7Qu85n16-fill)" d="M72 106c5-5 14-25 4-45a36 36 0 0 0-34-20c-4 2-4 6-4 7-1 1-7 2-15 10-8 9-9 27-6 38 1 4 2 7 5 10a30 30 0 0 0 16 11h9s7 0 13-2c6-3 10-8 10-8m-8-7-13 7c-2 1-8-1-9-1-6-4-12-14-11-30 2-16 19-17 22-16 2 0 3-3 4-4a29 29 0 0 1 12 25 29 29 0 0 1-5 19Z" transform="translate(45 46)"></path><mask id="e9B2S7Qu85n17" width="400%" height="400%" x="-150%" y="-150%" mask-type="alpha"><path fill="none" stroke="#3f5787" stroke-dasharray="186" stroke-dashoffset="186.2" stroke-linecap="round" stroke-linejoin="round" stroke-width="15" d="M95 99q-22 4-25 14c-4 11-4 36 8 42s22 5 27 0 13-13 14-22c1-7-3-22-6-27S92 92 90 93" style="animation-name:e9B2S7Qu85n19_s_w,e9B2S7Qu85n19_s_do;animation-duration:4500ms;animation-fill-mode:forwards;animation-timing-function:linear;animation-direction:normal;animation-iteration-count:infinite"></path></mask></g><g mask="url(#e9B2S7Qu85n22)"><path fill="url(#e9B2S7Qu85n21-fill)" d="M93 110c-3-6-6-2-15-3-8-1-7-2-6-2 5-5 14-24 4-44-10-19-38-14-38-13 0 0-8 2-15 10-8 9-9 27-6 38 1 4 2 7 5 10a30 30 0 0 0 16 11h11l6-1c3 1 3 8 19 10s16-5 17-6 6-4 2-10Zm-31-10s-3-2-6-10c-2-7 0-19-4-21-3-2-5 4-5 5-4 2-4 10-2 19 1 10 6 13 4 14s-8-1-9-1c-6-4-12-14-11-30 2-16 19-17 22-16 2 0 3-3 4-4a29 29 0 0 1 12 25 29 29 0 0 1-5 19Z" transform="translate(45 46)"></path><mask id="e9B2S7Qu85n22" width="400%" height="400%" x="-150%" y="-150%" mask-type="alpha"><path fill="none" stroke="#3f5787" stroke-dasharray="79" stroke-dashoffset="78.7" stroke-linecap="round" stroke-linejoin="round" stroke-width="20" d="M94 124q-1 23 6 32c7 9 29 7 32 7" style="animation:e9B2S7Qu85n24_s_do 4500ms linear infinite normal forwards"></path></mask></g><path fill="#faff01" d="M94 126c0 10 3 21 10 28h1c6-4 9-12 11-19a28 28 0 0 0 1-10 45 45 0 0 0-6-19l-3-4c9 6 13 18 13 28a32 32 0 0 1-13 24l-2 2 9 5a74 74 0 0 0 13 4h-10l-10-3a30 30 0 0 1-5-5 24 24 0 0 1-10 3c-9 0-18-2-24-10a39 39 0 0 1-4-19 33 33 0 0 1 1-11c3-13 17-23 31-22v1a30 30 0 0 0-27 25 46 46 0 0 0 1 19c3 10 11 15 21 15 4 1 7 0 10-2a30 30 0 0 1-5-8 44 44 0 0 1-3-22Z" opacity="0" style="animation:e9B2S7Qu85n25_c_o 4500ms linear infinite normal forwards"></path><g mask="url(#e9B2S7Qu85n29)"><path fill="url(#e9B2S7Qu85n28-fill)" d="M146 39c0-4-1-8-4-11-1-2-4-5-7-4-5 1-4 10-5 14l-3 32c-1 6-1 16-5 20-3 2-3-6-3-8l-1-20c0-7-4-17-12-15-5 1-1 7-1 10l-3 27c-2 8-4-1-5-5V60l-1-19c-1-6-15-2-19-1-4 5-4 18 5 14 7-2 5-3 3 8l-1 15v12c1 5 3 11 7 14l4 5c11 8 14-4 16-12v-3 2l2 8c1 3 1 7 4 10l1 1h1l2 4c12 10 20-32 22-39 2-13 4-27 3-40Z" transform="translate(45 46)"></path><mask id="e9B2S7Qu85n29" width="400%" height="400%" x="-150%" y="-150%" mask-type="alpha"><path fill="none" stroke="#3f5787" stroke-dasharray="277" stroke-dashoffset="276.5" stroke-linecap="round" stroke-linejoin="round" stroke-width="19" d="M121 94q14-7 15-4v35c1 5 5 26 10 26s11-47 11-51l1 29c1 5 7 29 11 28 7-1 12-30 15-80" style="animation:e9B2S7Qu85n30_s_do 4500ms linear infinite normal forwards"></path></mask></g><path fill="#faff01" d="M138 37a105 105 0 0 1 0 28c-1 9-2 18-5 27-1 5-3 13-7 16a5 5 0 0 1-6-1 20 20 0 0 1-5-8 82 82 0 0 1-4-14l-2-14h3l-3 12a73 73 0 0 1-4 12c-2 4-5 8-9 5l-5-6a23 23 0 0 1-3-9c-2-11 1-21 2-32 0-2 1-5-1-6h-4l-5 2h-1v-1l3-1c4-3 9-4 11 1v12l-1 18a48 48 0 0 0 1 12l3 5 3 3c2 0 3-2 4-3a48 48 0 0 0 4-12l2-13h3l1 7 6 20 3 5 1 1c4-3 8-23 8-29a501 501 0 0 0 5-23l1-7 1-7v-1 1Z" opacity="0" style="animation:e9B2S7Qu85n31_c_o 4500ms linear infinite normal forwards" transform="translate(45 46)"></path><path d="m147 33-3-5-5-5c-2-1-4-1-7 1a9 9 0 0 0-2 3 24 24 0 0 0-1 7l-2 17-2 20-2 13-1 1c0-9 1-25-4-32l-1-3a13 13 0 0 0-4-4 10 10 0 0 0-6-1l-5 2a5 5 0 0 0-1 3l1 3v5a98 98 0 0 1 0 10 99 99 0 0 1-2 14c-1-10 1-34-1-38l-1-1a6 6 0 0 0 0-2 8 8 0 0 0-1-1c-1-3-3-4-5-4a51 51 0 0 0-16 2l-1 2-2 4c0 3 0 6 2 9s4 3 7 3l3 1c-1 6-3 15-3 24 0 16 6 22 8 24l4 4a12 12 0 0 0 8 3 8 8 0 0 0 4 1h1c2-1 4-3 5-6l3 6 2 2 2 3a8 8 0 0 0 7 3 5 5 0 0 0 3 1c4 0 10-4 17-43 7-38 2-45 0-46Zm-28 81-1-1s-2-1-4-9l-2-7a105 105 0 0 1-2-5 37 37 0 0 1 0 5c-2 5-4 12-7 12-6 2-11-5-11-6-1 0-8-6-8-22l4-27v-3l-3 1c-2 1-6 3-8 0-3-5 0-11 0-11 1-1 16-5 18 0l1 19c0 10-1 21 1 24 0 1 5 15 8-16V56l-1-1c0-2-2-6 3-7 10 0 11 16 11 28l1 11c0 2 2 8 4 5 3-4 4-19 6-40l2-14v-5c1-2 1-5 3-6 3-2 6 0 8 3 1 1 7 6 0 46-9 43-14 44-18 44-3-1-5-5-5-5Z" opacity="0" style="animation:e9B2S7Qu85n32_c_o 4500ms linear infinite normal forwards" transform="translate(45 46)"></path><g mask="url(#e9B2S7Qu85n36)"><path fill="#0bfcaa" d="m77 99-4-2-2-3-3-3-9-8-3-3c-1-2-3-4-1-6 0 0 1-2 4-2a14 14 0 0 1 6 2h1v1h1l2 1 1 1h2l5 2a57 57 0 0 0-1-4l-1-9c0-3 0-8 2-10a6 6 0 0 1 4-2l5 2a6 6 0 0 1 1 2 229 229 0 0 0 8 19l7-6c3-2 7-5 11-6a14 14 0 0 1 3 0 6 6 0 0 1 3 0l2 4a5 5 0 0 1 0 2 12 12 0 0 1-3 4l-1 2-2 3-1 1-1 1-1 2-2 8a9 9 0 0 1-1 2c-1 1-2 3-4 3h-1c-2-1-3-2-3-4v-2l1-3 2-7a12 12 0 0 0-2 3h-1a7 7 0 0 1-3 4 10 10 0 0 1-4 1l-4-1-2-2a8 8 0 0 1-4 3l-3 1-2-1 2 5c1 2 0 4-2 5h-2Z"></path><mask id="e9B2S7Qu85n36" width="400%" height="400%" x="-150%" y="-150%" mask-type="alpha"><path fill="none" stroke="#3f5787" stroke-dasharray="159" stroke-dashoffset="159.3" stroke-linecap="round" stroke-linejoin="round" stroke-width="10" d="M78 95Q56 83 60 77c3-4 17 10 21 7 7-3-6-23 1-24s6 22 9 23 6 0 8-3 18-15 16-11l-9 23" style="animation:e9B2S7Qu85n37_s_do 4500ms linear infinite normal forwards"></path></mask></g><path fill="#faff01" d="M32 48a238 238 0 0 1-15-14v-2h1l3 1c3 2 8 4 12 4 6 0 6-7 6-12l-3-10h2c1 5 7 21 13 20 2 0 4-2 6-4l1-2 6-5a9 9 0 0 1 4-2c2 0 3 1 3 3l-3 8a116 116 0 0 0-7 12l4-12 2-5 1-2v-1h-1a25 25 0 0 0-8 7l-5 5c-8 4-13-7-15-13l-3-9h2c1 5 4 16 0 22-1 2-5 3-8 2a31 31 0 0 1-13-5l2-2a302 302 0 0 1 13 16h-1Zm0 1a243 243 0 0 1-15-15v-2h1l3 2c3 2 8 4 12 4 6 0 6-8 6-12l-3-11h2c1 5 7 21 13 21l6-5 1-2a29 29 0 0 1 6-5 9 9 0 0 1 4-1c2 0 3 1 3 2l-3 8a129 129 0 0 0-6 10 8 8 0 0 0-1 2l4-12 2-5 1-2v-1a18 18 0 0 0-4 3 24 24 0 0 0-5 5l-5 5c-8 4-13-8-15-14l-3-9h2c1 6 4 17 0 22-2 3-5 3-8 3l-12-5-1-1 2-2a297 297 0 0 1 13 17h-1Zm-1 0a243 243 0 0 1-14-15v-2h1l3 1c3 2 8 5 12 5 6 0 6-8 6-12l-3-11h1c2 5 7 21 14 21l6-5 1-2a29 29 0 0 1 6-5 9 9 0 0 1 4-1l3 2-4 8a129 129 0 0 0-5 10 8 8 0 0 0-1 2l4-12 2-5 1-2v-1l-1 1a24 24 0 0 0-8 7c-2 2-3 4-6 5-8 4-13-8-15-14l-2-9h1c2 6 5 17 1 22-2 3-5 3-8 3l-12-5-1-1 1-2a297 297 0 0 1 13 17Z" opacity="0" style="animation:e9B2S7Qu85n38_c_o 4500ms linear infinite normal forwards" transform="translate(45 46)"></path><path d="m74 31 1-1c1-1 3-3 3-5v-3a6 6 0 0 0-2-4l-4-1a14 14 0 0 0-4 1c-4 1-8 3-11 6h-1l-5 4a203 203 0 0 1-8-19 8 8 0 0 0-6-3 7 7 0 0 0-5 2c-3 3-3 8-3 11v1l1 9 1 2-3-1-1-1h-2v-1a15 15 0 0 1-2-1h-1l-1-1a17 17 0 0 0-7-1c-3 0-4 1-5 2-1 2-1 5 1 7l4 3 1 2 7 6 3 4 3 3a6 6 0 0 0 5 2 7 7 0 0 0 2 0 6 6 0 0 0 3-3v-4l-1-2 3-1a10 10 0 0 0 4-2l1 1 4 1 7-2v2l-1 2c0 3 2 5 4 6h2a6 6 0 0 0 5-3l1-3a40 40 0 0 1 5-12 14 14 0 0 1 2-3Zm-6 4-2 3a45 45 0 0 0-2 8l-1 2a3 3 0 0 1-3 1l-2-2v-2l1-3a38 38 0 0 1 5-12 21 21 0 0 0-8 7l-3 3-4 1-3-1a4 4 0 0 1-1-2l-1-1-1 1v1a7 7 0 0 1-4 3 11 11 0 0 1-7-1l-2-1a28 28 0 0 1 5 8c1 2 0 3-1 3h-1l-3-1-6-6-7-7-4-4-2-4 3-2 5 2h2v1l3 1 1 1 9 3-1-7-1-8c0-3-1-11 5-11l3 1 1 2a196 196 0 0 0 7 18l2 3a34 34 0 0 1 8-7c3-3 7-5 11-6h5a4 4 0 0 1 1 4 11 11 0 0 1-2 4l-4 5" opacity="0" style="animation:e9B2S7Qu85n39_c_o 4500ms linear infinite normal forwards" transform="translate(45 46)"></path></g></g></svg>