<svg xmlns="http://www.w3.org/2000/svg" shape-rendering="geometricPrecision" text-rendering="geometricPrecision" viewBox="0 0 700 679"><defs><radialGradient id="a" cx="0" cy="0" r=".5" gradientTransform="translate(.5 .5)" gradientUnits="objectBoundingBox" spreadMethod="pad"><stop offset="0%" stop-color="rgba(242,184,108,0.63)"/><stop offset="100%" stop-color="rgba(216,180,120,0)"/></radialGradient><radialGradient id="b" cx="0" cy="0" r=".5" gradientTransform="translate(.5 .5)" gradientUnits="objectBoundingBox" spreadMethod="pad"><stop offset="0%" stop-color="rgba(242,184,108,0.63)"/><stop offset="100%" stop-color="rgba(216,180,120,0)"/></radialGradient><radialGradient id="c" cx="0" cy="0" r=".5" gradientTransform="translate(.5 .5)" gradientUnits="objectBoundingBox" spreadMethod="pad"><stop offset="0%" stop-color="rgba(255,145,0,0.63)"/><stop offset="100%" stop-color="rgba(246,154,0,0)"/></radialGradient><radialGradient id="d" cx="0" cy="0" r=".5" gradientTransform="translate(.5 .5)" gradientUnits="objectBoundingBox" spreadMethod="pad"><stop offset="0%" stop-color="rgba(255,145,0,0.63)"/><stop offset="100%" stop-color="rgba(246,154,0,0)"/></radialGradient><radialGradient id="e" cx="0" cy="0" r=".5" gradientTransform="translate(.5 .5)" gradientUnits="objectBoundingBox" spreadMethod="pad"><stop offset="0%" stop-color="rgba(255,145,0,0.63)"/><stop offset="100%" stop-color="rgba(246,154,0,0)"/></radialGradient><radialGradient id="f" cx="0" cy="0" r=".5" gradientTransform="translate(.5 .5)" gradientUnits="objectBoundingBox" spreadMethod="pad"><stop offset="0%" stop-color="rgba(255,145,0,0.63)"/><stop offset="100%" stop-color="rgba(246,154,0,0)"/></radialGradient><radialGradient id="g" cx="0" cy="0" r=".5" gradientTransform="translate(.5 .5)" gradientUnits="objectBoundingBox" spreadMethod="pad"><stop offset="0%" stop-color="rgba(255,145,0,0.63)"/><stop offset="100%" stop-color="rgba(246,154,0,0)"/></radialGradient><radialGradient id="h" cx="0" cy="0" r=".5" gradientTransform="translate(.5 .5)" gradientUnits="objectBoundingBox" spreadMethod="pad"><stop offset="0%" stop-color="rgba(255,145,0,0.63)"/><stop offset="100%" stop-color="rgba(246,154,0,0)"/></radialGradient><radialGradient id="i" cx="0" cy="0" r=".5" gradientTransform="translate(.5 .5)" gradientUnits="objectBoundingBox" spreadMethod="pad"><stop offset="0%" stop-color="rgba(255,145,0,0.63)"/><stop offset="100%" stop-color="rgba(246,154,0,0)"/></radialGradient><radialGradient id="j" cx="0" cy="0" r=".5" gradientTransform="translate(.5 .5)" gradientUnits="objectBoundingBox" spreadMethod="pad"><stop offset="0%" stop-color="rgba(242,184,108,0.63)"/><stop offset="100%" stop-color="rgba(216,180,120,0)"/></radialGradient><radialGradient id="k" cx="0" cy="0" r=".5" gradientTransform="translate(.5 .5)" gradientUnits="objectBoundingBox" spreadMethod="pad"><stop offset="0%" stop-color="rgba(242,184,108,0.63)"/><stop offset="100%" stop-color="rgba(216,180,120,0)"/></radialGradient><radialGradient id="l" cx="0" cy="0" r=".5" gradientTransform="translate(.5 .5)" gradientUnits="objectBoundingBox" spreadMethod="pad"><stop offset="0%" stop-color="rgba(242,184,108,0.63)"/><stop offset="100%" stop-color="rgba(216,180,120,0)"/></radialGradient><radialGradient id="m" cx="0" cy="0" r=".5" gradientTransform="translate(.5 .5)" gradientUnits="objectBoundingBox" spreadMethod="pad"><stop offset="0%" stop-color="rgba(242,184,108,0.63)"/><stop offset="100%" stop-color="rgba(216,180,120,0)"/></radialGradient><radialGradient id="n" cx="0" cy="0" r=".5" gradientTransform="translate(.5 .5)" gradientUnits="objectBoundingBox" spreadMethod="pad"><stop offset="0%" stop-color="rgba(242,184,108,0.63)"/><stop offset="100%" stop-color="rgba(216,180,120,0)"/></radialGradient><radialGradient id="o" cx="0" cy="0" r="1" gradientTransform="matrix(3.5 -.7 6.7 32 700.1 248.5)" gradientUnits="userSpaceOnUse" spreadMethod="pad"><stop offset="0%" stop-color="#ffd911"/><stop offset="14%" stop-color="rgba(255,212,61,0.45)"/><stop offset="46%" stop-color="rgba(227,152,63,0.25)"/><stop offset="72%" stop-color="rgba(184,107,21,0.1)"/><stop offset="90%" stop-color="rgba(124,84,33,0)"/><stop offset="100%" stop-color="rgba(109,61,0,0)"/></radialGradient><radialGradient id="p" cx="0" cy="0" r="1" gradientTransform="matrix(1.3 -3.3 30.5 11.5 699.3 249.3)" gradientUnits="userSpaceOnUse" spreadMethod="pad"><stop offset="0%" stop-color="#ffd911"/><stop offset="14%" stop-color="rgba(255,212,61,0.45)"/><stop offset="46%" stop-color="rgba(227,152,63,0.25)"/><stop offset="72%" stop-color="rgba(184,107,21,0.1)"/><stop offset="90%" stop-color="rgba(124,84,33,0)"/><stop offset="100%" stop-color="rgba(109,61,0,0)"/></radialGradient><radialGradient id="q" cx="0" cy="0" r="1" gradientTransform="matrix(-2.4 -2.6 24.3 -21.8 699.5 250.5)" gradientUnits="userSpaceOnUse" spreadMethod="pad"><stop offset="0%" stop-color="#ffd911"/><stop offset="14%" stop-color="rgba(255,212,61,0.45)"/><stop offset="46%" stop-color="rgba(227,152,63,0.25)"/><stop offset="72%" stop-color="rgba(184,107,21,0.1)"/><stop offset="90%" stop-color="rgba(124,84,33,0)"/><stop offset="100%" stop-color="rgba(109,61,0,0)"/></radialGradient><radialGradient id="r" cx="0" cy="0" r="1" gradientTransform="matrix(1.8 -1.6 14.8 16.5 699.8 249)" gradientUnits="userSpaceOnUse" spreadMethod="pad"><stop offset="0%" stop-color="#ffd911"/><stop offset="14%" stop-color="rgba(255,212,61,0.45)"/><stop offset="46%" stop-color="rgba(227,152,63,0.25)"/><stop offset="72%" stop-color="rgba(184,107,21,0.1)"/><stop offset="90%" stop-color="rgba(124,84,33,0)"/><stop offset="100%" stop-color="rgba(109,61,0,0)"/></radialGradient><radialGradient id="s" cx="0" cy="0" r="1" gradientTransform="matrix(-.4 -2.4 21.9 -3.6 699.6 249.8)" gradientUnits="userSpaceOnUse" spreadMethod="pad"><stop offset="0%" stop-color="#ffd911"/><stop offset="14%" stop-color="rgba(255,212,61,0.45)"/><stop offset="46%" stop-color="rgba(227,152,63,0.25)"/><stop offset="72%" stop-color="rgba(184,107,21,0.1)"/><stop offset="90%" stop-color="rgba(124,84,33,0)"/><stop offset="100%" stop-color="rgba(109,61,0,0)"/></radialGradient><radialGradient id="t" cx="0" cy="0" r="1" gradientTransform="matrix(-2.3 -.7 6.9 -21 700.2 250.4)" gradientUnits="userSpaceOnUse" spreadMethod="pad"><stop offset="0%" stop-color="#ffd911"/><stop offset="14%" stop-color="rgba(255,212,61,0.45)"/><stop offset="46%" stop-color="rgba(227,152,63,0.25)"/><stop offset="72%" stop-color="rgba(184,107,21,0.1)"/><stop offset="90%" stop-color="rgba(124,84,33,0)"/><stop offset="100%" stop-color="rgba(109,61,0,0)"/></radialGradient><radialGradient id="u" cx="0" cy="0" r="1" gradientTransform="rotate(90) scale(14.4)" gradientUnits="userSpaceOnUse" spreadMethod="pad"><stop offset="0%" stop-color="#fff"/><stop offset="59.9%" stop-color="#ffefb6"/><stop offset="100%" stop-color="rgba(255,230,0,0.85)"/></radialGradient><radialGradient id="v" cx="0" cy="0" r="1" gradientTransform="matrix(-3.6 .7 -6.4 -33.1 38.7 383)" gradientUnits="userSpaceOnUse" spreadMethod="pad"><stop offset="0%" stop-color="#ffd911"/><stop offset="14%" stop-color="rgba(255,212,61,0.45)"/><stop offset="46%" stop-color="rgba(227,152,63,0.25)"/><stop offset="72%" stop-color="rgba(184,107,21,0.1)"/><stop offset="90%" stop-color="rgba(124,84,33,0)"/><stop offset="100%" stop-color="rgba(109,61,0,0)"/></radialGradient><radialGradient id="w" cx="0" cy="0" r="1" gradientTransform="matrix(-2.5 -2.7 24.4 -23.3 39.8 383.4)" gradientUnits="userSpaceOnUse" spreadMethod="pad"><stop offset="0%" stop-color="#ffd911"/><stop offset="14%" stop-color="rgba(255,212,61,0.45)"/><stop offset="46%" stop-color="rgba(227,152,63,0.25)"/><stop offset="72%" stop-color="rgba(184,107,21,0.1)"/><stop offset="90%" stop-color="rgba(124,84,33,0)"/><stop offset="100%" stop-color="rgba(109,61,0,0)"/></radialGradient><radialGradient id="x" cx="0" cy="0" r="1" gradientTransform="matrix(1.2 -3.5 32 11 40 384.6)" gradientUnits="userSpaceOnUse" spreadMethod="pad"><stop offset="0%" stop-color="#ffd911"/><stop offset="14%" stop-color="rgba(255,212,61,0.45)"/><stop offset="46%" stop-color="rgba(227,152,63,0.25)"/><stop offset="72%" stop-color="rgba(184,107,21,0.1)"/><stop offset="90%" stop-color="rgba(124,84,33,0)"/><stop offset="100%" stop-color="rgba(109,61,0,0)"/></radialGradient><radialGradient id="y" cx="0" cy="0" r="1" gradientTransform="matrix(-2.3 -.8 7.5 -21.7 39.2 383.4)" gradientUnits="userSpaceOnUse" spreadMethod="pad"><stop offset="0%" stop-color="#ffd911"/><stop offset="14%" stop-color="rgba(255,212,61,0.45)"/><stop offset="46%" stop-color="rgba(227,152,63,0.25)"/><stop offset="72%" stop-color="rgba(184,107,21,0.1)"/><stop offset="90%" stop-color="rgba(124,84,33,0)"/><stop offset="100%" stop-color="rgba(109,61,0,0)"/></radialGradient><radialGradient id="z" cx="0" cy="0" r="1" gradientTransform="matrix(-.6 -2.4 22.3 -5.4 39.7 384)" gradientUnits="userSpaceOnUse" spreadMethod="pad"><stop offset="0%" stop-color="#ffd911"/><stop offset="14%" stop-color="rgba(255,212,61,0.45)"/><stop offset="46%" stop-color="rgba(227,152,63,0.25)"/><stop offset="72%" stop-color="rgba(184,107,21,0.1)"/><stop offset="90%" stop-color="rgba(124,84,33,0)"/><stop offset="100%" stop-color="rgba(109,61,0,0)"/></radialGradient><radialGradient id="A" cx="0" cy="0" r="1" gradientTransform="matrix(1.9 -1.6 15 17.3 39.5 384.8)" gradientUnits="userSpaceOnUse" spreadMethod="pad"><stop offset="0%" stop-color="#ffd911"/><stop offset="14%" stop-color="rgba(255,212,61,0.45)"/><stop offset="46%" stop-color="rgba(227,152,63,0.25)"/><stop offset="72%" stop-color="rgba(184,107,21,0.1)"/><stop offset="90%" stop-color="rgba(124,84,33,0)"/><stop offset="100%" stop-color="rgba(109,61,0,0)"/></radialGradient><radialGradient id="B" cx="0" cy="0" r="1" gradientTransform="rotate(90) scale(14.4)" gradientUnits="userSpaceOnUse" spreadMethod="pad"><stop offset="0%" stop-color="#fff"/><stop offset="59.9%" stop-color="#ffefb6"/><stop offset="100%" stop-color="rgba(255,230,0,0.85)"/></radialGradient><radialGradient id="C" cx="0" cy="0" r="1" gradientTransform="matrix(.6 3.1 -28.7 5.6 436.3 645.1)" gradientUnits="userSpaceOnUse" spreadMethod="pad"><stop offset="0%" stop-color="#ffd911"/><stop offset="14%" stop-color="rgba(255,212,61,0.45)"/><stop offset="46%" stop-color="rgba(227,152,63,0.25)"/><stop offset="72%" stop-color="rgba(184,107,21,0.1)"/><stop offset="90%" stop-color="rgba(124,84,33,0)"/><stop offset="100%" stop-color="rgba(109,61,0,0)"/></radialGradient><radialGradient id="D" cx="0" cy="0" r="1" gradientTransform="matrix(-2.3 2.2 -20.1 -21.2 436.7 644.2)" gradientUnits="userSpaceOnUse" spreadMethod="pad"><stop offset="0%" stop-color="#ffd911"/><stop offset="14%" stop-color="rgba(255,212,61,0.45)"/><stop offset="46%" stop-color="rgba(227,152,63,0.25)"/><stop offset="72%" stop-color="rgba(184,107,21,0.1)"/><stop offset="90%" stop-color="rgba(124,84,33,0)"/><stop offset="100%" stop-color="rgba(109,61,0,0)"/></radialGradient><radialGradient id="E" cx="0" cy="0" r="1" gradientTransform="matrix(-3 -1 9.5 -27.6 437.7 644)" gradientUnits="userSpaceOnUse" spreadMethod="pad"><stop offset="0%" stop-color="#ffd911"/><stop offset="14%" stop-color="rgba(255,212,61,0.45)"/><stop offset="46%" stop-color="rgba(227,152,63,0.25)"/><stop offset="72%" stop-color="rgba(184,107,21,0.1)"/><stop offset="90%" stop-color="rgba(124,84,33,0)"/><stop offset="100%" stop-color="rgba(109,61,0,0)"/></radialGradient><radialGradient id="F" cx="0" cy="0" r="1" gradientTransform="matrix(-.7 2 -18.7 -6.5 436.7 644.7)" gradientUnits="userSpaceOnUse" spreadMethod="pad"><stop offset="0%" stop-color="#ffd911"/><stop offset="14%" stop-color="rgba(255,212,61,0.45)"/><stop offset="46%" stop-color="rgba(227,152,63,0.25)"/><stop offset="72%" stop-color="rgba(184,107,21,0.1)"/><stop offset="90%" stop-color="rgba(124,84,33,0)"/><stop offset="100%" stop-color="rgba(109,61,0,0)"/></radialGradient><radialGradient id="G" cx="0" cy="0" r="1" gradientTransform="matrix(-2 .5 -4.7 -19.3 437.2 644.3)" gradientUnits="userSpaceOnUse" spreadMethod="pad"><stop offset="0%" stop-color="#ffd911"/><stop offset="14%" stop-color="rgba(255,212,61,0.45)"/><stop offset="46%" stop-color="rgba(227,152,63,0.25)"/><stop offset="72%" stop-color="rgba(184,107,21,0.1)"/><stop offset="90%" stop-color="rgba(124,84,33,0)"/><stop offset="100%" stop-color="rgba(109,61,0,0)"/></radialGradient><radialGradient id="H" cx="0" cy="0" r="1" gradientTransform="matrix(-1.4 -1.6 15 -13 438 644.5)" gradientUnits="userSpaceOnUse" spreadMethod="pad"><stop offset="0%" stop-color="#ffd911"/><stop offset="14%" stop-color="rgba(255,212,61,0.45)"/><stop offset="46%" stop-color="rgba(227,152,63,0.25)"/><stop offset="72%" stop-color="rgba(184,107,21,0.1)"/><stop offset="90%" stop-color="rgba(124,84,33,0)"/><stop offset="100%" stop-color="rgba(109,61,0,0)"/></radialGradient><radialGradient id="I" cx="0" cy="0" r="1" gradientTransform="rotate(90) scale(14.4)" gradientUnits="userSpaceOnUse" spreadMethod="pad"><stop offset="0%" stop-color="#fff"/><stop offset="59.9%" stop-color="#ffefb6"/><stop offset="100%" stop-color="rgba(255,230,0,0.85)"/></radialGradient><radialGradient id="J" cx="0" cy="0" r="1" gradientTransform="matrix(1.8 -2.8 25.6 16.7 557 34)" gradientUnits="userSpaceOnUse" spreadMethod="pad"><stop offset="0%" stop-color="#ffd911"/><stop offset="14%" stop-color="rgba(255,212,61,0.45)"/><stop offset="46%" stop-color="rgba(227,152,63,0.25)"/><stop offset="72%" stop-color="rgba(184,107,21,0.1)"/><stop offset="90%" stop-color="rgba(124,84,33,0)"/><stop offset="100%" stop-color="rgba(109,61,0,0)"/></radialGradient><radialGradient id="K" cx="0" cy="0" r="1" gradientTransform="matrix(-1.4 -3 27.8 -12.6 557 35)" gradientUnits="userSpaceOnUse" spreadMethod="pad"><stop offset="0%" stop-color="#ffd911"/><stop offset="14%" stop-color="rgba(255,212,61,0.45)"/><stop offset="46%" stop-color="rgba(227,152,63,0.25)"/><stop offset="72%" stop-color="rgba(184,107,21,0.1)"/><stop offset="90%" stop-color="rgba(124,84,33,0)"/><stop offset="100%" stop-color="rgba(109,61,0,0)"/></radialGradient><radialGradient id="L" cx="0" cy="0" r="1" gradientTransform="matrix(-3.3 -.2 1.6 -30.5 558 35.7)" gradientUnits="userSpaceOnUse" spreadMethod="pad"><stop offset="0%" stop-color="#ffd911"/><stop offset="14%" stop-color="rgba(255,212,61,0.45)"/><stop offset="46%" stop-color="rgba(227,152,63,0.25)"/><stop offset="72%" stop-color="rgba(184,107,21,0.1)"/><stop offset="90%" stop-color="rgba(124,84,33,0)"/><stop offset="100%" stop-color="rgba(109,61,0,0)"/></radialGradient><radialGradient id="M" cx="0" cy="0" r="1" gradientTransform="matrix(.1 -2.2 20.7 1.1 557.3 34.5)" gradientUnits="userSpaceOnUse" spreadMethod="pad"><stop offset="0%" stop-color="#ffd911"/><stop offset="14%" stop-color="rgba(255,212,61,0.45)"/><stop offset="46%" stop-color="rgba(227,152,63,0.25)"/><stop offset="72%" stop-color="rgba(184,107,21,0.1)"/><stop offset="90%" stop-color="rgba(124,84,33,0)"/><stop offset="100%" stop-color="rgba(109,61,0,0)"/></radialGradient><radialGradient id="N" cx="0" cy="0" r="1" gradientTransform="matrix(-1.8 -1.3 12 -16.8 557.6 35.2)" gradientUnits="userSpaceOnUse" spreadMethod="pad"><stop offset="0%" stop-color="#ffd911"/><stop offset="14%" stop-color="rgba(255,212,61,0.45)"/><stop offset="46%" stop-color="rgba(227,152,63,0.25)"/><stop offset="72%" stop-color="rgba(184,107,21,0.1)"/><stop offset="90%" stop-color="rgba(124,84,33,0)"/><stop offset="100%" stop-color="rgba(109,61,0,0)"/></radialGradient><radialGradient id="O" cx="0" cy="0" r="1" gradientTransform="matrix(-2 1 -9.4 -18.5 558.4 35.2)" gradientUnits="userSpaceOnUse" spreadMethod="pad"><stop offset="0%" stop-color="#ffd911"/><stop offset="14%" stop-color="rgba(255,212,61,0.45)"/><stop offset="46%" stop-color="rgba(227,152,63,0.25)"/><stop offset="72%" stop-color="rgba(184,107,21,0.1)"/><stop offset="90%" stop-color="rgba(124,84,33,0)"/><stop offset="100%" stop-color="rgba(109,61,0,0)"/></radialGradient><radialGradient id="P" cx="0" cy="0" r="1" gradientTransform="rotate(90) scale(14.4)" gradientUnits="userSpaceOnUse" spreadMethod="pad"><stop offset="0%" stop-color="#fff"/><stop offset="59.9%" stop-color="#ffefb6"/><stop offset="100%" stop-color="rgba(255,230,0,0.85)"/></radialGradient><radialGradient id="Q" cx="0" cy="0" r="1" gradientTransform="matrix(-2 2.9 -26.4 -17.8 183 596.1)" gradientUnits="userSpaceOnUse" spreadMethod="pad"><stop offset="0%" stop-color="#ffd911"/><stop offset="14%" stop-color="rgba(255,212,61,0.45)"/><stop offset="46%" stop-color="rgba(227,152,63,0.25)"/><stop offset="72%" stop-color="rgba(184,107,21,0.1)"/><stop offset="90%" stop-color="rgba(124,84,33,0)"/><stop offset="100%" stop-color="rgba(109,61,0,0)"/></radialGradient><radialGradient id="R" cx="0" cy="0" r="1" gradientTransform="matrix(-3.5 0 .8 -31.8 184 595.6)" gradientUnits="userSpaceOnUse" spreadMethod="pad"><stop offset="0%" stop-color="#ffd911"/><stop offset="14%" stop-color="rgba(255,212,61,0.45)"/><stop offset="46%" stop-color="rgba(227,152,63,0.25)"/><stop offset="72%" stop-color="rgba(184,107,21,0.1)"/><stop offset="90%" stop-color="rgba(124,84,33,0)"/><stop offset="100%" stop-color="rgba(109,61,0,0)"/></radialGradient><radialGradient id="S" cx="0" cy="0" r="1" gradientTransform="matrix(-1.5 -3.1 28.6 -14 185 596.3)" gradientUnits="userSpaceOnUse" spreadMethod="pad"><stop offset="0%" stop-color="#ffd911"/><stop offset="14%" stop-color="rgba(255,212,61,0.45)"/><stop offset="46%" stop-color="rgba(227,152,63,0.25)"/><stop offset="72%" stop-color="rgba(184,107,21,0.1)"/><stop offset="90%" stop-color="rgba(124,84,33,0)"/><stop offset="100%" stop-color="rgba(109,61,0,0)"/></radialGradient><radialGradient id="T" cx="0" cy="0" r="1" gradientTransform="matrix(-2.1 1 -9.5 -19.4 183.7 596)" gradientUnits="userSpaceOnUse" spreadMethod="pad"><stop offset="0%" stop-color="#ffd911"/><stop offset="14%" stop-color="rgba(255,212,61,0.45)"/><stop offset="46%" stop-color="rgba(227,152,63,0.25)"/><stop offset="72%" stop-color="rgba(184,107,21,0.1)"/><stop offset="90%" stop-color="rgba(124,84,33,0)"/><stop offset="100%" stop-color="rgba(109,61,0,0)"/></radialGradient><radialGradient id="U" cx="0" cy="0" r="1" gradientTransform="matrix(-2 -1.2 11.3 -18.4 184.4 596.1)" gradientUnits="userSpaceOnUse" spreadMethod="pad"><stop offset="0%" stop-color="#ffd911"/><stop offset="14%" stop-color="rgba(255,212,61,0.45)"/><stop offset="46%" stop-color="rgba(227,152,63,0.25)"/><stop offset="72%" stop-color="rgba(184,107,21,0.1)"/><stop offset="90%" stop-color="rgba(124,84,33,0)"/><stop offset="100%" stop-color="rgba(109,61,0,0)"/></radialGradient><radialGradient id="V" cx="0" cy="0" r="1" gradientTransform="matrix(.2 -2.3 21.6 1.5 184.8 596.9)" gradientUnits="userSpaceOnUse" spreadMethod="pad"><stop offset="0%" stop-color="#ffd911"/><stop offset="14%" stop-color="rgba(255,212,61,0.45)"/><stop offset="46%" stop-color="rgba(227,152,63,0.25)"/><stop offset="72%" stop-color="rgba(184,107,21,0.1)"/><stop offset="90%" stop-color="rgba(124,84,33,0)"/><stop offset="100%" stop-color="rgba(109,61,0,0)"/></radialGradient><radialGradient id="W" cx="0" cy="0" r="1" gradientTransform="rotate(90) scale(14.4)" gradientUnits="userSpaceOnUse" spreadMethod="pad"><stop offset="0%" stop-color="#fff"/><stop offset="59.9%" stop-color="#ffefb6"/><stop offset="100%" stop-color="rgba(255,230,0,0.85)"/></radialGradient><radialGradient id="X" cx="0" cy="0" r="1" gradientTransform="matrix(-3 -1.9 17.5 -26.8 87.1 128.9)" gradientUnits="userSpaceOnUse" spreadMethod="pad"><stop offset="0%" stop-color="#ffd911"/><stop offset="14%" stop-color="rgba(255,212,61,0.45)"/><stop offset="46%" stop-color="rgba(227,152,63,0.25)"/><stop offset="72%" stop-color="rgba(184,107,21,0.1)"/><stop offset="90%" stop-color="rgba(124,84,33,0)"/><stop offset="100%" stop-color="rgba(109,61,0,0)"/></radialGradient><radialGradient id="Y" cx="0" cy="0" r="1" gradientTransform="matrix(-3.2 1.4 -13.2 -29.1 88.3 128.9)" gradientUnits="userSpaceOnUse" spreadMethod="pad"><stop offset="0%" stop-color="#ffd911"/><stop offset="14%" stop-color="rgba(255,212,61,0.45)"/><stop offset="46%" stop-color="rgba(227,152,63,0.25)"/><stop offset="72%" stop-color="rgba(184,107,21,0.1)"/><stop offset="90%" stop-color="rgba(124,84,33,0)"/><stop offset="100%" stop-color="rgba(109,61,0,0)"/></radialGradient><radialGradient id="Z" cx="0" cy="0" r="1" gradientTransform="matrix(-.2 3.5 -32 -1.7 88.9 127.9)" gradientUnits="userSpaceOnUse" spreadMethod="pad"><stop offset="0%" stop-color="#ffd911"/><stop offset="14%" stop-color="rgba(255,212,61,0.45)"/><stop offset="46%" stop-color="rgba(227,152,63,0.25)"/><stop offset="72%" stop-color="rgba(184,107,21,0.1)"/><stop offset="90%" stop-color="rgba(124,84,33,0)"/><stop offset="100%" stop-color="rgba(109,61,0,0)"/></radialGradient><radialGradient id="aa" cx="0" cy="0" r="1" gradientTransform="matrix(-2.4 -.1 1.2 -21.7 87.7 128.6)" gradientUnits="userSpaceOnUse" spreadMethod="pad"><stop offset="0%" stop-color="#ffd911"/><stop offset="14%" stop-color="rgba(255,212,61,0.45)"/><stop offset="46%" stop-color="rgba(227,152,63,0.25)"/><stop offset="72%" stop-color="rgba(184,107,21,0.1)"/><stop offset="90%" stop-color="rgba(124,84,33,0)"/><stop offset="100%" stop-color="rgba(109,61,0,0)"/></radialGradient><radialGradient id="ab" cx="0" cy="0" r="1" gradientTransform="matrix(-1.4 2 -17.6 -12.7 88.4 128.3)" gradientUnits="userSpaceOnUse" spreadMethod="pad"><stop offset="0%" stop-color="#ffd911"/><stop offset="14%" stop-color="rgba(255,212,61,0.45)"/><stop offset="46%" stop-color="rgba(227,152,63,0.25)"/><stop offset="72%" stop-color="rgba(184,107,21,0.1)"/><stop offset="90%" stop-color="rgba(124,84,33,0)"/><stop offset="100%" stop-color="rgba(109,61,0,0)"/></radialGradient><radialGradient id="ac" cx="0" cy="0" r="1" gradientTransform="matrix(1 2.1 -19.4 9.8 88.4 127.5)" gradientUnits="userSpaceOnUse" spreadMethod="pad"><stop offset="0%" stop-color="#ffd911"/><stop offset="14%" stop-color="rgba(255,212,61,0.45)"/><stop offset="46%" stop-color="rgba(227,152,63,0.25)"/><stop offset="72%" stop-color="rgba(184,107,21,0.1)"/><stop offset="90%" stop-color="rgba(124,84,33,0)"/><stop offset="100%" stop-color="rgba(109,61,0,0)"/></radialGradient><radialGradient id="ad" cx="0" cy="0" r="1" gradientTransform="rotate(90) scale(14.4)" gradientUnits="userSpaceOnUse" spreadMethod="pad"><stop offset="0%" stop-color="#fff"/><stop offset="59.9%" stop-color="#ffefb6"/><stop offset="100%" stop-color="rgba(255,230,0,0.85)"/></radialGradient><radialGradient id="ae" cx="0" cy="0" r="1" gradientTransform="matrix(2.8 2 -17.7 26.3 649.3 502.8)" gradientUnits="userSpaceOnUse" spreadMethod="pad"><stop offset="0%" stop-color="#ffd911"/><stop offset="14%" stop-color="rgba(255,212,61,0.45)"/><stop offset="46%" stop-color="rgba(227,152,63,0.25)"/><stop offset="72%" stop-color="rgba(184,107,21,0.1)"/><stop offset="90%" stop-color="rgba(124,84,33,0)"/><stop offset="100%" stop-color="rgba(109,61,0,0)"/></radialGradient><radialGradient id="af" cx="0" cy="0" r="1" gradientTransform="matrix(0 3.4 -31.7 -.8 648.8 501.8)" gradientUnits="userSpaceOnUse" spreadMethod="pad"><stop offset="0%" stop-color="#ffd911"/><stop offset="14%" stop-color="rgba(255,212,61,0.45)"/><stop offset="46%" stop-color="rgba(227,152,63,0.25)"/><stop offset="72%" stop-color="rgba(184,107,21,0.1)"/><stop offset="90%" stop-color="rgba(124,84,33,0)"/><stop offset="100%" stop-color="rgba(109,61,0,0)"/></radialGradient><radialGradient id="ag" cx="0" cy="0" r="1" gradientTransform="matrix(-3 1.5 -13.9 -28.5 649.5 500.8)" gradientUnits="userSpaceOnUse" spreadMethod="pad"><stop offset="0%" stop-color="#ffd911"/><stop offset="14%" stop-color="rgba(255,212,61,0.45)"/><stop offset="46%" stop-color="rgba(227,152,63,0.25)"/><stop offset="72%" stop-color="rgba(184,107,21,0.1)"/><stop offset="90%" stop-color="rgba(124,84,33,0)"/><stop offset="100%" stop-color="rgba(109,61,0,0)"/></radialGradient><radialGradient id="ah" cx="0" cy="0" r="1" gradientTransform="matrix(1 2 -19.3 9.4 649.3 502.2)" gradientUnits="userSpaceOnUse" spreadMethod="pad"><stop offset="0%" stop-color="#ffd911"/><stop offset="14%" stop-color="rgba(255,212,61,0.45)"/><stop offset="46%" stop-color="rgba(227,152,63,0.25)"/><stop offset="72%" stop-color="rgba(184,107,21,0.1)"/><stop offset="90%" stop-color="rgba(124,84,33,0)"/><stop offset="100%" stop-color="rgba(109,61,0,0)"/></radialGradient><radialGradient id="ai" cx="0" cy="0" r="1" gradientTransform="matrix(-1.2 2 -18.3 -11.2 649.3 501.4)" gradientUnits="userSpaceOnUse" spreadMethod="pad"><stop offset="0%" stop-color="#ffd911"/><stop offset="14%" stop-color="rgba(255,212,61,0.45)"/><stop offset="46%" stop-color="rgba(227,152,63,0.25)"/><stop offset="72%" stop-color="rgba(184,107,21,0.1)"/><stop offset="90%" stop-color="rgba(124,84,33,0)"/><stop offset="100%" stop-color="rgba(109,61,0,0)"/></radialGradient><radialGradient id="aj" cx="0" cy="0" r="1" gradientTransform="matrix(-2.3 -.2 1.5 -21.4 650 501.1)" gradientUnits="userSpaceOnUse" spreadMethod="pad"><stop offset="0%" stop-color="#ffd911"/><stop offset="14%" stop-color="rgba(255,212,61,0.45)"/><stop offset="46%" stop-color="rgba(227,152,63,0.25)"/><stop offset="72%" stop-color="rgba(184,107,21,0.1)"/><stop offset="90%" stop-color="rgba(124,84,33,0)"/><stop offset="100%" stop-color="rgba(109,61,0,0)"/></radialGradient><radialGradient id="ak" cx="0" cy="0" r="1" gradientTransform="rotate(90) scale(14.4)" gradientUnits="userSpaceOnUse" spreadMethod="pad"><stop offset="0%" stop-color="#fff"/><stop offset="59.9%" stop-color="#ffefb6"/><stop offset="100%" stop-color="rgba(255,230,0,0.85)"/></radialGradient><radialGradient id="al" cx="0" cy="0" r="1" gradientTransform="rotate(90) scale(14.4)" gradientUnits="userSpaceOnUse" spreadMethod="pad"><stop offset="28.6%" stop-color="#ffe486"/><stop offset="28.7%" stop-color="#dba315"/><stop offset="100%" stop-color="rgba(255,122,0,0.35)"/></radialGradient><radialGradient id="am" cx="0" cy="0" r="1" gradientTransform="rotate(90) scale(14.4)" gradientUnits="userSpaceOnUse" spreadMethod="pad"><stop offset="28.6%" stop-color="#ffe486"/><stop offset="28.7%" stop-color="#dba315"/><stop offset="100%" stop-color="rgba(255,122,0,0.35)"/></radialGradient><radialGradient id="an" cx="0" cy="0" r="1" gradientTransform="rotate(90) scale(14.4)" gradientUnits="userSpaceOnUse" spreadMethod="pad"><stop offset="28.6%" stop-color="#ffe486"/><stop offset="28.7%" stop-color="#dba315"/><stop offset="100%" stop-color="rgba(255,122,0,0.35)"/></radialGradient><radialGradient id="ao" cx="0" cy="0" r="1" gradientTransform="rotate(90) scale(14.4)" gradientUnits="userSpaceOnUse" spreadMethod="pad"><stop offset="28.6%" stop-color="#ffe486"/><stop offset="28.7%" stop-color="#dba315"/><stop offset="100%" stop-color="rgba(255,122,0,0.35)"/></radialGradient><radialGradient id="ap" cx="0" cy="0" r="1" gradientTransform="rotate(90) scale(14.4)" gradientUnits="userSpaceOnUse" spreadMethod="pad"><stop offset="28.6%" stop-color="#ffe486"/><stop offset="28.7%" stop-color="#dba315"/><stop offset="100%" stop-color="rgba(255,122,0,0.35)"/></radialGradient><radialGradient id="aq" cx="0" cy="0" r="1" gradientTransform="rotate(90) scale(14.4)" gradientUnits="userSpaceOnUse" spreadMethod="pad"><stop offset="28.6%" stop-color="#ffe486"/><stop offset="28.7%" stop-color="#dba315"/><stop offset="100%" stop-color="rgba(255,122,0,0.35)"/></radialGradient><radialGradient id="ar" cx="0" cy="0" r="1" gradientTransform="rotate(90) scale(14.4)" gradientUnits="userSpaceOnUse" spreadMethod="pad"><stop offset="28.6%" stop-color="#ffe486"/><stop offset="28.7%" stop-color="#dba315"/><stop offset="100%" stop-color="rgba(255,122,0,0.35)"/></radialGradient></defs><circle r="17.4" fill="url(#a)" transform="matrix(1.8 0 0 1.8 162.8 39.2)"/><circle r="17.4" fill="url(#b)" transform="matrix(1.8 0 0 1.8 74 500.2)"/><circle r="17.4" fill="url(#c)" transform="matrix(1.4 0 0 1.4 167.9 592.2)"/><circle r="17.4" fill="url(#d)" transform="matrix(1.4 0 0 1.4 417 639.7)"/><circle r="17.4" fill="url(#e)" transform="matrix(1.4 0 0 1.4 627.4 499.2)"/><circle r="17.4" fill="url(#f)" transform="matrix(1.4 0 0 1.4 676.4 251.2)"/><circle r="17.4" fill="url(#g)" transform="matrix(1.4 0 0 1.4 536.2 38)"/><circle r="17.4" fill="url(#h)" transform="matrix(1.4 0 0 1.4 73 129.6)"/><circle r="17.4" fill="url(#i)" transform="matrix(1.3 0 0 1.3 25.6 383)"/><circle r="17.4" fill="url(#j)" transform="matrix(1.8 0 0 1.8 286.3 640.3)"/><circle r="17.4" fill="url(#k)" transform="matrix(1.8 0 0 1.8 533.7 592.8)"/><circle r="17.4" fill="url(#l)" transform="matrix(1.8 0 0 1.8 627.4 130.1)"/><circle r="17.4" fill="url(#m)" transform="matrix(1.4 0 0 1.8 674.8 380.2)"/><circle r="17.4" fill="url(#n)" transform="matrix(1.4 0 0 1.8 23.4 249.9)"/><path fill="url(#o)" d="M697.3 250.4c-3.4-15.5-4.8-29-2.9-29.5 2-.5 6 11.9 9 28 3.4 15.5 4.8 29 3 29.5-2 .5-6-11.9-9-28Z" style="mix-blend-mode:color-dodge" transform="translate(-19.4 129.4)"/><path fill="url(#p)" d="M699.4 252.7c-15-5.6-27-11.7-26.5-13.5.6-1.9 13.3 1.3 28.5 7.5 14.9 5.5 18.2 6 17.6 7.8-.6 1.9-4.4 4.3-19.6-1.8Z" style="mix-blend-mode:color-dodge" transform="translate(-19.4 129.4)"/><path fill="url(#q)" d="M702.6 252c-11.8 10.6-22.8 18.6-24.2 17.2-1.3-1.4 7.3-11.1 19.8-21.8 11.7-10.7 19.4-14 20.8-12.6 1.4 1.4-4 6.5-16.4 17.1Z" style="mix-blend-mode:color-dodge" transform="translate(-19.4 129.4)"/><path fill="url(#r)" d="M698.8 251.2c-7.2-8-12.6-15.5-11.7-16.4 1-1 7.6 5 14.8 13.4 7.3 8 12.7 15.4 11.7 16.4-.9.9-7.5-5-14.8-13.4Z" style="mix-blend-mode:color-dodge" transform="translate(-19.4 129.4)"/><path fill="url(#s)" d="M700.8 251.8c-10.6 1.8-19.9 2.3-20.1 1s8.2-3.7 19.3-5.2c10.6-1.9 19.8-2.4 20-1 .3 1.2-8.2 3.6-19.2 5.2Z" style="mix-blend-mode:color-dodge" transform="translate(-19.4 129.4)"/><path fill="url(#t)" d="M702.4 250.3c-3.2 10.2-7 18.7-8.3 18.3-1.3-.4.5-9 4.2-19.5 3.3-10.3 7-18.7 8.4-18.4 1.2.4-.6 9-4.3 19.6Z" style="mix-blend-mode:color-dodge" transform="translate(-19.4 129.4)"/><circle r="14.4" fill="url(#u)" transform="rotate(-11.5 2230.8 -3178.6)"/><path fill="url(#v)" d="M42.2 383.7c-3-16.2-7.8-26.3-9.7-26s-.4 10.4 3.2 27c3 16.1 7.2 29.6 9.2 29.3s.9-13.8-2.7-30.3Z" style="mix-blend-mode:color-dodge" transform="translate(-20.3 -131.6)"/><path fill="url(#w)" d="M41 386.6c12-11.2 21.2-22 19.9-23.5-1.4-1.5-12.1 6.7-24.1 18.6-12 11.3-19.1 20.5-17.8 22s10-5.1 22-17Z" style="mix-blend-mode:color-dodge" transform="translate(-18.6 -131.8)"/><path fill="url(#x)" d="M37.8 387.2c15.5 5.5 29.2 8.6 30 6.7s-11.5-7.6-27.7-12.8c-13.4-4.3-20.4-5.8-21.1-4s7.7 6.6 18.8 10.1Z" style="mix-blend-mode:color-dodge" transform="translate(-18.6 -131.8)"/><path fill="url(#y)" d="M41 385c3.7-10.6 5.8-19.9 4.6-20.4-1.3-.5-5.2 7.8-8.7 18.8-3.7 10.5-5.9 19.8-4.6 20.3 1.3.5 5.2-7.8 8.7-18.7Z" style="mix-blend-mode:color-dodge" transform="translate(-20.3 -131.6)"/><path fill="url(#z)" d="M39.4 386.3c10.8-2.5 19.8-5.7 19.6-7-.3-1.4-9.4-.2-20.5 2.7-10.9 2.6-19.9 5.8-19.6 7.1s9.3.2 20.5-2.8Z" style="mix-blend-mode:color-dodge" transform="translate(-20.3 -131.6)"/><path fill="url(#A)" d="M37.2 385.6c7.3 8.4 14.3 15 15.3 14 1-.8-4.1-8.3-11.8-16.8-7.3-8.5-14.3-15-15.4-14.1-1 .8 4.2 8.3 12 16.9Z" style="mix-blend-mode:color-dodge" transform="translate(-18.6 -131.8)"/><circle r="14.4" fill="url(#B)" transform="matrix(-1 .2 .2 1 23.4 251.8)"/><path fill="url(#C)" d="M437 642.2c-14 2.6-25.7 6.2-25.4 7.9.2 1.7 11.9.8 26.2-2.3 14-2.7 25.6-6.2 25.4-8-.3-1.7-12-.7-26.3 2.4Z" style="mix-blend-mode:color-dodge" transform="translate(-149.6 .2)"/><path fill="url(#D)" d="M439.5 643c-9.8-10.3-19-18.2-20.4-17-1.3 1.1 5.8 10.4 16.1 20.8 9.8 10.4 19 18.3 20.4 17.1s-5.8-10.4-16.1-20.8Z" style="mix-blend-mode:color-dodge" transform="translate(-149.6 .2)"/><path fill="url(#E)" d="M440 646c4.7-13.4 7.4-25.3 5.8-26-1.6-.6-6.6 10-11 24-4.8 13.4-7.5 25.2-5.9 25.9s6.6-10 11.1-24Z" style="mix-blend-mode:color-dodge" transform="translate(-149.6 .2)"/><path fill="url(#F)" d="M438 643.2c-9-3.2-17.1-5-17.5-4-.5 1.1 6.7 4.5 16.2 7.6 9 3.2 17.1 5 17.6 3.9.4-1.1-6.8-4.5-16.2-7.5Z" style="mix-blend-mode:color-dodge" transform="translate(-149.6 .2)"/><path fill="url(#G)" d="M439.2 644.6c-2.2-9.4-5-17.2-6.1-17-1.2.3-.2 8.1 2.4 17.7 2.2 9.4 5 17.2 6.1 17 1.2-.2.2-8-2.4-17.7Z" style="mix-blend-mode:color-dodge" transform="translate(-149.6 .2)"/><path fill="url(#H)" d="M438.6 646.5c7.3-6.3 13-12.4 12.2-13.3s-7.3 3.6-14.6 10.3c-7.4 6.3-13 12.3-12.3 13.2.8 1 7.3-3.5 14.7-10.2Z" style="mix-blend-mode:color-dodge" transform="translate(-149.6 .2)"/><circle r="14.4" fill="url(#I)" transform="matrix(.2 1 1 -.2 286.8 640.6)"/><path fill="url(#J)" d="M556.5 37c-12.5-8-22.4-16-21.4-17.5 1-1.6 11.8 3.9 24.5 12.5 12.5 8 22.3 16 21.4 17.6s-11.8-3.9-24.5-12.5Z" style="mix-blend-mode:color-dodge" transform="translate(70.9 91.3)"/><path fill="url(#K)" d="M559.4 37.2c-13.5 6.2-25.6 10.2-26.4 8.6-.9-1.7 9.6-7.9 23.7-13.9 13.5-6.2 25.6-10.2 26.4-8.6s-9.6 7.9-23.7 13.9Z" style="mix-blend-mode:color-dodge" transform="translate(70.9 91.3)"/><path fill="url(#L)" d="M561 34.6c-.7 14.8-2.7 27.4-4.6 27.4s-2.5-12.2-1.3-27.5c.7-14.8 2.7-27.4 4.5-27.4s2.6 12.2 1.4 27.5Z" style="mix-blend-mode:color-dodge" transform="translate(70.9 91.3)"/><path fill="url(#M)" d="M558 36.5c-10-.4-18.6-1.8-18.6-3 0-1.3 8.3-1.7 18.7-1 10 .5 18.6 1.9 18.6 3.1 0 1.3-8.3 1.7-18.7 1Z" style="mix-blend-mode:color-dodge" transform="translate(70.9 91.3)"/><path fill="url(#N)" d="M559.7 35.7c-5.8 8.2-11.6 14.6-12.6 14-1-.7 3-8 9.3-16.3 5.8-8.2 11.5-14.6 12.6-14 1 .7-3 8-9.3 16.3Z" style="mix-blend-mode:color-dodge" transform="translate(70.9 91.3)"/><path fill="url(#O)" d="M559.8 33.6c4.6 9 7.7 17 6.6 17.6-1 .6-5.6-6.3-10.1-15.7-4.6-9-7.7-17-6.6-17.6 1-.6 5.6 6.3 10 15.7Z" style="mix-blend-mode:color-dodge" transform="translate(70.9 91.3)"/><circle r="14.4" fill="url(#P)" transform="rotate(-56.5 434.3 -518.8)"/><path fill="url(#Q)" d="M185.8 594.3c-12.8-8.7-24.5-15-25.6-13.4-1.1 1.5 8.5 9.7 22 18.4 12.8 8.7 24.5 15 25.7 13.4 1-1.5-8.6-9.7-22-18.4Z" style="mix-blend-mode:color-dodge" transform="translate(-113.2 -92)"/><path fill="url(#R)" d="M187 597c.6-15.5-.5-28.8-2.4-28.9-1.9 0-3.6 12.5-3.7 28.5-.4 15.5.6 28.7 2.5 28.9 2 0 3.6-12.5 3.7-28.5Z" style="mix-blend-mode:color-dodge" transform="translate(-113.2 -92)"/><path fill="url(#S)" d="M185.3 599.6c14-6.7 25.2-13.7 24.4-15.5s-12.7 2.5-27 9.9c-14 6.7-25.2 13.7-24.4 15.5.8 1.7 12.7-2.6 27-9.9Z" style="mix-blend-mode:color-dodge" transform="translate(-113.2 -92)"/><path fill="url(#T)" d="M186 596c-4.6-9.5-9.4-17.2-10.6-16.7-1.2.6 1.7 8.7 6.7 18.3 4.6 9.5 9.3 17.2 10.5 16.6 1.2-.5-1.7-8.6-6.7-18.3Z" style="mix-blend-mode:color-dodge" transform="translate(-113.2 -92)"/><path fill="url(#U)" d="M185.8 598c5.5-9 9.4-17.1 8.3-17.9-1-.7-6.4 6.2-11.8 15.5-5.6 9-9.4 17.1-8.4 17.8 1.1.7 6.4-6 11.9-15.5Z" style="mix-blend-mode:color-dodge" transform="translate(-113.2 -92)"/><path fill="url(#V)" d="M183.8 598.9c10.5.8 19.5.4 19.6-.8.2-1.3-8.3-2.9-19.2-3.4-10.5-.8-19.5-.5-19.6.8-.1 1.3 8.4 2.9 19.2 3.4Z" style="mix-blend-mode:color-dodge" transform="translate(-113.2 -92)"/><circle r="14.4" fill="url(#W)" transform="matrix(-.6 .8 .8 .6 72.8 501)"/><path fill="url(#X)" d="M90.4 129.4C82 142.6 73.6 153 71.9 152s4.1-12.4 13.2-25.6c8.4-13.1 16.8-23.5 18.5-22.5 1.6 1-4.1 12.4-13.2 25.6Z" style="mix-blend-mode:color-dodge" transform="translate(71.3 -91.5)"/><path fill="url(#Y)" d="M90.5 126.5c6.5 14.1 10.7 26.8 9 27.6-1.7.9-8.2-10-14.5-24.9-6.5-14.1-10.7-26.8-9-27.6s8.2 10 14.5 24.9Z" style="mix-blend-mode:color-dodge" transform="translate(71.3 -91.5)"/><path fill="url(#Z)" d="M87.8 124.8c15.5.7 28.7 2.8 28.7 4.7 0 2-12.8 2.7-28.8 1.4-15.6-.7-28.7-2.8-28.7-4.7 0-2 12.8-2.7 28.8-1.4Z" style="mix-blend-mode:color-dodge" transform="translate(71.3 -91.5)"/><path fill="url(#aa)" d="M89.8 127.9c-.5 10.5-1.9 19.5-3.2 19.5-1.3 0-1.8-8.7-1-19.6.5-10.5 2-19.5 3.3-19.5 1.3 0 1.8 8.7 1 19.6Z" style="mix-blend-mode:color-dodge" transform="translate(71.3 -91.5)"/><path fill="url(#ab)" d="M88.9 126.1c8.6 6.1 15.4 12.1 14.7 13.2s-8.3-3.1-17-9.7c-8.6-6.1-15.4-12.1-14.7-13.2.7-1 8.3 3.2 17 9.7Z" style="mix-blend-mode:color-dodge" transform="translate(71.3 -91.5)"/><path fill="url(#ac)" d="M86.7 126c9.4-4.8 17.9-8 18.5-7s-6.6 6-16.4 10.7c-9.4 4.8-17.9 8-18.5 7-.7-1.2 6.6-6 16.4-10.7Z" style="mix-blend-mode:color-dodge" transform="translate(71.3 -91.5)"/><circle r="14.4" fill="url(#ad)" transform="rotate(-146.5 87.4 -5.1)"/><path fill="url(#ae)" d="M647.5 500c-8.7 12.8-14.9 24.5-13.4 25.6 1.6 1.1 9.8-8.5 18.4-22 8.7-12.6 14.9-24.3 13.3-25.4-1.5-1.1-9.7 8.5-18.3 21.9Z" style="mix-blend-mode:color-dodge" transform="translate(-112.3 92.3)"/><path fill="url(#af)" d="M650.2 498.8c-15.4-.5-28.6.6-28.7 2.5-.1 1.9 12.4 3.6 28.3 3.6 15.4.5 28.6-.6 28.7-2.4.1-2-12.4-3.6-28.3-3.7Z" style="mix-blend-mode:color-dodge" transform="translate(-112.3 92.3)"/><path fill="url(#ag)" d="M652.8 500.6c-6.7-13.9-13.7-25-15.4-24.3-1.7.8 2.5 12.7 9.8 26.8 6.7 14 13.7 25.1 15.4 24.4 1.7-.8-2.5-12.7-9.8-26.9Z" style="mix-blend-mode:color-dodge" transform="translate(-112.3 92.3)"/><path fill="url(#ah)" d="M649.1 500c-9.4 4.5-17 9.3-16.5 10.4.5 1.2 8.6-1.7 18.2-6.6 9.5-4.5 17-9.3 16.5-10.5-.5-1.2-8.6 1.7-18.2 6.7Z" style="mix-blend-mode:color-dodge" transform="translate(-112.3 92.3)"/><path fill="url(#ai)" d="M651.1 500.1c-8.9-5.5-17-9.3-17.7-8.2-.7 1 6.1 6.3 15.4 11.7 9 5.5 17 9.4 17.7 8.3.7-1-6-6.3-15.4-11.8Z" style="mix-blend-mode:color-dodge" transform="translate(-112.3 92.3)"/><path fill="url(#aj)" d="M652 502.1c.8-10.4.5-19.4-.7-19.5-1.3-.2-2.9 8.3-3.4 19-.8 10.5-.5 19.5.8 19.6 1.3.1 2.8-8.3 3.4-19.1Z" style="mix-blend-mode:color-dodge" transform="translate(-112.3 92.3)"/><circle r="14.4" fill="url(#ak)" transform="matrix(.8 .6 .6 -.8 533.7 591.5)"/><circle r="14.4" fill="url(#al)" transform="rotate(56.1 -155 838.2)"/><circle r="14.4" fill="url(#am)" transform="matrix(-.6 -.8 -.8 .6 73 130)"/><circle r="14.4" fill="url(#an)" transform="rotate(-33.9 331.6 -859.8)"/><circle r="14.4" fill="url(#ao)" transform="matrix(-.8 .6 .6 .8 168 592.8)"/><circle r="14.4" fill="url(#ap)" transform="rotate(11.1 -957.8 3612.5)"/><circle r="14.4" fill="url(#aq)" transform="matrix(-1 -.2 -.2 1 24.8 383)"/><circle r="14.4" fill="url(#ar)" transform="matrix(-.2 1 1 .2 417.2 640.5)"/></svg>