<svg xmlns="http://www.w3.org/2000/svg" shape-rendering="geometricPrecision" text-rendering="geometricPrecision" viewBox="0 0 700 679"><defs><linearGradient id="a" x1="184.1" x2="169" y1="36.7" y2="59" gradientUnits="userSpaceOnUse" spreadMethod="pad"><stop offset="0%" stop-color="#936a00"/><stop offset="45%" stop-color="#25263a"/><stop offset="90%" stop-color="#2b3e28"/><stop offset="100%" stop-color="#876100"/></linearGradient><linearGradient id="b" x1="89.7" x2="111.9" y1="132.3" y2="117" gradientUnits="userSpaceOnUse" spreadMethod="pad"><stop offset="0%" stop-color="#936a00"/><stop offset="45%" stop-color="#25263a"/><stop offset="90%" stop-color="#2b3e28"/><stop offset="100%" stop-color="#876100"/></linearGradient><linearGradient id="c" x1="42.3" x2="47.3" y1="249" y2="275.5" gradientUnits="userSpaceOnUse" spreadMethod="pad"><stop offset="0%" stop-color="#936a00"/><stop offset="45%" stop-color="#25263a"/><stop offset="90%" stop-color="#2b3e28"/><stop offset="100%" stop-color="#876100"/></linearGradient><linearGradient id="d" x1="42.4" x2="57.2" y1="380.8" y2="403.3" gradientUnits="userSpaceOnUse" spreadMethod="pad"><stop offset="0%" stop-color="#936a00"/><stop offset="45%" stop-color="#25263a"/><stop offset="90%" stop-color="#2b3e28"/><stop offset="100%" stop-color="#876100"/></linearGradient><linearGradient id="e" x1="91.4" x2="113.7" y1="499.2" y2="514.3" gradientUnits="userSpaceOnUse" spreadMethod="pad"><stop offset="0%" stop-color="#936a00"/><stop offset="45%" stop-color="#25263a"/><stop offset="90%" stop-color="#2b3e28"/><stop offset="100%" stop-color="#876100"/></linearGradient><linearGradient id="f" x1="184.1" x2="210.5" y1="591.9" y2="597.4" gradientUnits="userSpaceOnUse" spreadMethod="pad"><stop offset="0%" stop-color="#936a00"/><stop offset="45%" stop-color="#25263a"/><stop offset="90%" stop-color="#2b3e28"/><stop offset="100%" stop-color="#876100"/></linearGradient><linearGradient id="g" x1="434" x2="456.5" y1="641.5" y2="626.7" gradientUnits="userSpaceOnUse" spreadMethod="pad"><stop offset="0%" stop-color="#936a00"/><stop offset="45%" stop-color="#25263a"/><stop offset="90%" stop-color="#2b3e28"/><stop offset="100%" stop-color="#876100"/></linearGradient><linearGradient id="h" x1="555.3" x2="529" y1="590.6" y2="596.2" gradientUnits="userSpaceOnUse" spreadMethod="pad"><stop offset="0%" stop-color="#936a00"/><stop offset="45%" stop-color="#25263a"/><stop offset="90%" stop-color="#2b3e28"/><stop offset="100%" stop-color="#876100"/></linearGradient><linearGradient id="i" x1="645.1" x2="650.6" y1="501.8" y2="475.4" gradientUnits="userSpaceOnUse" spreadMethod="pad"><stop offset="0%" stop-color="#936a00"/><stop offset="45%" stop-color="#25263a"/><stop offset="90%" stop-color="#2b3e28"/><stop offset="100%" stop-color="#876100"/></linearGradient><linearGradient id="j" x1="302.7" x2="329.2" y1="641" y2="636" gradientUnits="userSpaceOnUse" spreadMethod="pad"><stop offset="0%" stop-color="#936a00"/><stop offset="45%" stop-color="#25263a"/><stop offset="90%" stop-color="#2b3e28"/><stop offset="100%" stop-color="#876100"/></linearGradient><linearGradient id="k" x1="696.6" x2="681.9" y1="377.5" y2="400.1" gradientUnits="userSpaceOnUse" spreadMethod="pad"><stop offset="0%" stop-color="#936a00"/><stop offset="45%" stop-color="#25263a"/><stop offset="90%" stop-color="#2b3e28"/><stop offset="100%" stop-color="#876100"/></linearGradient><linearGradient id="l" x1="695.8" x2="691" y1="247.9" y2="274.4" gradientUnits="userSpaceOnUse" spreadMethod="pad"><stop offset="0%" stop-color="#936a00"/><stop offset="45%" stop-color="#25263a"/><stop offset="90%" stop-color="#2b3e28"/><stop offset="100%" stop-color="#876100"/></linearGradient><linearGradient id="m" x1="645.3" x2="651" y1="127" y2="153.3" gradientUnits="userSpaceOnUse" spreadMethod="pad"><stop offset="0%" stop-color="#936a00"/><stop offset="45%" stop-color="#25263a"/><stop offset="90%" stop-color="#2b3e28"/><stop offset="100%" stop-color="#876100"/></linearGradient><linearGradient id="n" x1="553.6" x2="568.9" y1="36.5" y2="58.7" gradientUnits="userSpaceOnUse" spreadMethod="pad"><stop offset="0%" stop-color="#936a00"/><stop offset="45%" stop-color="#25263a"/><stop offset="90%" stop-color="#2b3e28"/><stop offset="100%" stop-color="#876100"/></linearGradient></defs><path fill="url(#a)" d="m196.9 37 .1-.7a15 15 0 0 0-1.1-4 .5.5 0 0 0-.6-.3 47.1 47.1 0 0 0-24 15.9c-.3.4-.2.9.1 1.2a15 15 0 0 0 4.7 3c.4.2.7.2 1 0l19-14c.2-.1.3-.3.3-.4l.5-.8Z" style="mix-blend-mode:multiply" transform="translate(-19)"/><path fill="none" stroke="#db8f0a" stroke-opacity=".8" d="M196.5 36.4c-.1-1.3-.5-2.6-1-3.9a46.7 46.7 0 0 0-23.8 15.7v.5c1.4 1.3 3 2.3 4.6 3h.5l19-14 .2-.2.5-.8v-.3ZM89.5 144.7c-1.3-.1-2.6-.5-3.9-1a46.7 46.7 0 0 1 15.5-23.9h.6c1.3 1.4 2.3 3 3 4.6v.5l-14 19.2-.1.1-.8.5h-.3Z" style="mix-blend-mode:overlay" transform="translate(-19)"/><path fill="url(#b)" d="M90 145a1 1 0 0 1-.6.2 15 15 0 0 1-4-1 .5.5 0 0 1-.3-.6 47.1 47.1 0 0 1 15.7-24.2 1 1 0 0 1 1.2.1c1.4 1.4 2.4 3 3.2 4.7 0 .4 0 .7-.2 1l-13.9 19.2s-.1.2-.3.2l-.8.5Z" style="mix-blend-mode:multiply" transform="translate(-19)"/><path fill="url(#c)" d="M51.5 240.2a1 1 0 0 0-.4-.5 15 15 0 0 0-3.7-2.2c-.2 0-.4 0-.5.3a47.1 47.1 0 0 0-5.8 28.2c.1.5.5.8 1 .8 1.9 0 3.8-.5 5.5-1.2.3-.1.5-.4.6-.7l3.5-23.4v-.5l-.2-.8Z" style="mix-blend-mode:multiply" transform="translate(-19)"/><path fill="none" stroke="#db8f0a" stroke-opacity=".8" d="M50.8 240c-1-.8-2.2-1.5-3.4-2a46.6 46.6 0 0 0-5.8 28c0 .1.2.3.5.3 1.8 0 3.6-.4 5.3-1.1l.3-.4 3.5-23.4v-.2l-.2-1-.2-.1Z" style="mix-blend-mode:overlay" transform="translate(-19)"/><path fill="url(#d)" d="M47.5 369a1 1 0 0 0-.5-.3 15 15 0 0 0-4.2-.5c-.2 0-.4.2-.4.4a47.1 47.1 0 0 0 5.5 28.3c.2.4.7.5 1.1.4a15 15 0 0 0 4.7-3.2c.3-.3.3-.6.3-1l-5.7-23a1 1 0 0 0-.2-.3l-.6-.7Z" style="mix-blend-mode:multiply" transform="translate(-19)"/><path fill="none" stroke="#db8f0a" stroke-opacity=".8" d="M46.9 369.2c-1.3-.4-2.6-.5-4-.5a46.7 46.7 0 0 0 5.4 28c.1.1.4.2.5.1 1.8-.7 3.3-1.8 4.6-3v-.5l-5.6-23v-.2l-.7-.7-.2-.2Z" style="mix-blend-mode:overlay" transform="translate(-19)"/><path fill="url(#e)" d="M91.6 486.4a1 1 0 0 0-.5-.1 15 15 0 0 0-4.2 1.1l-.2.6a47.1 47.1 0 0 0 15.9 24c.4.3.9.2 1.2-.1a15 15 0 0 0 3.1-4.7 1 1 0 0 0-.1-1l-14-19a1 1 0 0 0-.4-.3l-.8-.5Z" style="mix-blend-mode:multiply" transform="translate(-19)"/><path fill="none" stroke="#db8f0a" stroke-opacity=".8" d="M91.1 486.8c-1.3.1-2.6.5-3.9 1a46.7 46.7 0 0 0 15.7 23.8h.6c1.3-1.4 2.3-3 3-4.6l-.1-.5-14-19-.2-.2-.8-.5h-.3Z" style="mix-blend-mode:overlay" transform="translate(-19)"/><path fill="url(#f)" d="M179.4 580a1 1 0 0 0-.6.1 15 15 0 0 0-3.4 2.6v.6a47.1 47.1 0 0 0 24 16.1c.4.2.8 0 1-.5a15 15 0 0 0 1-5.6 1 1 0 0 0-.4-.8l-20.3-12.2a1 1 0 0 0-.4-.2h-.9Z" style="mix-blend-mode:multiply" transform="translate(-19)"/><path fill="url(#g)" d="M422.3 636.4a1 1 0 0 0-.4.5 15 15 0 0 0-.5 4.2c0 .2.2.4.4.4a47.1 47.1 0 0 0 28.3-5.5c.4-.2.5-.7.3-1.2-.7-1.7-1.8-3.3-3.1-4.6a1 1 0 0 0-1-.3l-23 5.7a1 1 0 0 0-.3.2l-.7.6Z" style="mix-blend-mode:multiply" transform="translate(-19)"/><path fill="none" stroke="#db8f0a" stroke-opacity=".8" d="M422.4 637c-.4 1.3-.5 2.6-.5 4a46.6 46.6 0 0 0 28-5.4c.1-.1.2-.4 0-.6-.7-1.7-1.7-3.2-3-4.5a.5.5 0 0 0-.4 0l-23 5.6h-.2l-.7.6-.2.3Z" style="mix-blend-mode:overlay" transform="translate(-19)"/><path fill="url(#h)" d="M560 578.7h.5a15 15 0 0 1 3.4 2.7v.6a47.2 47.2 0 0 1-23.8 16.2 1 1 0 0 1-1-.5 15 15 0 0 1-1.2-5.6c0-.3.2-.6.5-.8l20.2-12.4.4-.1 1-.1Z" style="mix-blend-mode:multiply" transform="translate(-19)"/><path fill="none" stroke="#db8f0a" stroke-opacity=".8" d="M560.3 579.2c1.1.7 2.2 1.5 3.2 2.4a46.7 46.7 0 0 1-23.5 16.1c-.2.1-.4 0-.5-.2-.7-1.7-1-3.6-1-5.4 0-.1 0-.3.2-.4l20.2-12.3.2-.1.9-.1h.3ZM179 580.6c-1 .6-2.2 1.4-3.1 2.4a46.7 46.7 0 0 0 23.6 16c.2 0 .4-.1.5-.3.6-1.7 1-3.6 1-5.4l-.3-.4-20.2-12.2h-.2l-1-.2h-.2ZM293.8 632.5c-.8 1-1.5 2.2-2 3.4a46.6 46.6 0 0 0 27.8 5.8c.3 0 .4-.2.4-.5 0-1.8-.4-3.6-1.1-5.3l-.4-.3-23.4-3.6h-.2l-.9.3s-.2 0-.2.2Z" style="mix-blend-mode:overlay" transform="translate(-19)"/><path fill="url(#i)" d="m633.2 506.5.1.6a15 15 0 0 0 2.6 3.3c.2.2.5.2.6 0a47.2 47.2 0 0 0 16.1-23.8 1 1 0 0 0-.5-1.1 15 15 0 0 0-5.6-1 1 1 0 0 0-.8.4l-12.2 20.3-.2.4v.9Z" style="mix-blend-mode:multiply" transform="translate(-19)"/><path fill="none" stroke="#db8f0a" stroke-opacity=".8" d="M633.8 506.8a14.6 14.6 0 0 0 2.4 3.2 46.7 46.7 0 0 0 16-23.6c0-.2-.1-.4-.3-.5-1.7-.6-3.6-1-5.4-1l-.4.3-12.2 20.2v.2l-.2 1v.2Z" style="mix-blend-mode:overlay" transform="translate(-19)"/><path fill="url(#j)" d="M293.9 631.8a1 1 0 0 0-.5.4 15 15 0 0 0-2.1 3.7c0 .2 0 .4.2.5a47.1 47.1 0 0 0 28.2 5.8c.5-.1.8-.5.8-1 0-1.9-.4-3.8-1.1-5.5a1 1 0 0 0-.8-.6l-23.4-3.5a1 1 0 0 0-.4 0l-1 .2Z" style="mix-blend-mode:multiply" transform="translate(-19)"/><path fill="url(#k)" d="m691.4 365.8.5-.3a15 15 0 0 1 4.2-.6c.2 0 .4.2.4.5a47.1 47.1 0 0 1-5.3 28.3 1 1 0 0 1-1.2.3 15 15 0 0 1-4.6-3.1 1 1 0 0 1-.3-1l5.5-23 .2-.3.6-.8Z" style="mix-blend-mode:multiply" transform="translate(-19)"/><path fill="none" stroke="#db8f0a" stroke-opacity=".8" d="M692 366c1.3-.4 2.6-.6 4-.6a46.6 46.6 0 0 1-5.2 28c-.1.2-.4.3-.6.2-1.7-.7-3.2-1.8-4.5-3a.5.5 0 0 1-.1-.5l5.5-23 .1-.2.6-.8.2-.1Z" style="mix-blend-mode:overlay" transform="translate(-19)"/><path fill="url(#l)" d="M686.6 239.1c0-.2.1-.4.3-.5a15 15 0 0 1 3.7-2.2c.2 0 .4 0 .5.3a47.1 47.1 0 0 1 6 28.2c0 .4-.5.8-1 .8-1.9 0-3.7-.5-5.5-1.2a1 1 0 0 1-.6-.7l-3.7-23.4v-.4l.3-.9Z" style="mix-blend-mode:multiply" transform="translate(-19)"/><path fill="none" stroke="#db8f0a" stroke-opacity=".8" d="M687.2 239c1-.8 2.2-1.5 3.5-2a46.7 46.7 0 0 1 5.9 27.8c0 .2-.2.4-.4.4-1.9 0-3.7-.4-5.4-1.1a.5.5 0 0 1-.3-.4l-3.7-23.4v-.2l.3-.9.1-.2Z" style="mix-blend-mode:overlay" transform="translate(-19)"/><path fill="url(#m)" d="m633.4 122.4.1-.6a15 15 0 0 1 2.6-3.4h.6a47.1 47.1 0 0 1 16.3 23.8c0 .4-.2.9-.6 1-1.8.8-3.7 1.1-5.5 1.2a1 1 0 0 1-.9-.5l-12.3-20.2a1 1 0 0 1-.2-.4l-.1-1Z" style="mix-blend-mode:multiply" transform="translate(-19)"/><path fill="none" stroke="#db8f0a" stroke-opacity=".8" d="M634 122c.6-1.1 1.4-2.2 2.4-3.2a46.7 46.7 0 0 1 16 23.5c.1.2 0 .4-.2.5-1.7.7-3.5 1-5.3 1-.2 0-.3 0-.4-.2L634 123.4v-.2l-.2-.9v-.3Z" style="mix-blend-mode:overlay" transform="translate(-19)"/><path fill="url(#n)" d="M540.8 36.8a1 1 0 0 1-.1-.5 15 15 0 0 1 1-4.2c.2-.2.4-.2.6-.2a47.2 47.2 0 0 1 24.1 15.7c.3.4.3 1 0 1.2a15 15 0 0 1-4.7 3.2 1 1 0 0 1-1-.2L541.5 38a1 1 0 0 1-.2-.4l-.5-.8Z" style="mix-blend-mode:multiply" transform="translate(-19)"/><path fill="none" stroke="#db8f0a" stroke-opacity=".8" d="M541.2 36.3c.1-1.3.5-2.6 1-3.9A46.6 46.6 0 0 1 566 47.9c.2.2.2.4 0 .6a14.6 14.6 0 0 1-4.5 3h-.5l-19.2-14-.1-.1-.5-.8v-.3Z" style="mix-blend-mode:overlay" transform="translate(-19)"/></svg>