<svg xmlns="http://www.w3.org/2000/svg" id="eTp3BH7SVNX1" width="250" height="250" shape-rendering="geometricPrecision" text-rendering="geometricPrecision"><style>@keyframes eTp3BH7SVNX2_c_o{0%{opacity:1;animation-timing-function:step-end}to{opacity:0}}@keyframes eTp3BH7SVNX3_tr__tr{0%{transform:translate(124px,117px) rotate(0deg)}98.68%,to{transform:translate(124px,117px) rotate(360deg)}}@keyframes eTp3BH7SVNX4_c_o{0%{opacity:1;animation-timing-function:step-end}to{opacity:0}}@keyframes eTp3BH7SVNX7_tr__tr{0%{transform:translate(124px,117px) rotate(0deg)}98.68%,to{transform:translate(124px,117px) rotate(360deg)}}@keyframes eTp3BH7SVNX8_c_o{0%{opacity:1;animation-timing-function:step-end}to{opacity:0}}@keyframes eTp3BH7SVNX11_tr__tr{0%{transform:translate(124px,117px) rotate(0deg)}98.68%,to{transform:translate(124px,117px) rotate(360deg)}}@keyframes eTp3BH7SVNX12_c_o{0%{opacity:1;animation-timing-function:step-end}to{opacity:0}}@keyframes eTp3BH7SVNX15_tr__tr{0%{transform:translate(124px,117px) rotate(0deg)}98.68%,to{transform:translate(124px,117px) rotate(360deg)}}@keyframes eTp3BH7SVNX16_c_o{0%{opacity:1;animation-timing-function:step-end}to{opacity:0}}@keyframes eTp3BH7SVNX19_tr__tr{0%{transform:translate(124px,117px) rotate(0deg)}98.68%,to{transform:translate(124px,117px) rotate(360deg)}}@keyframes eTp3BH7SVNX20_c_o{0%{opacity:1;animation-timing-function:step-end}to{opacity:0}}@keyframes eTp3BH7SVNX23_tr__tr{0%{transform:translate(124px,117px) rotate(0deg)}98.68%,to{transform:translate(124px,117px) rotate(360deg)}}@keyframes eTp3BH7SVNX24_c_o{0%{opacity:1;animation-timing-function:step-end}to{opacity:0}}@keyframes eTp3BH7SVNX27_tr__tr{0%{transform:translate(124px,117px) rotate(0deg)}98.68%,to{transform:translate(124px,117px) rotate(720deg)}}@keyframes eTp3BH7SVNX28_c_o{0%{opacity:1;animation-timing-function:step-end}to{opacity:0}}@keyframes eTp3BH7SVNX31_tr__tr{0%{transform:translate(124px,117px) rotate(0deg)}98.68%,to{transform:translate(124px,117px) rotate(720deg)}}@keyframes eTp3BH7SVNX32_c_o{0%{opacity:1;animation-timing-function:step-end}to{opacity:0}}@keyframes eTp3BH7SVNX37_tr__tr{0%{transform:translate(127.165px,122.821253px) rotate(0deg)}98.68%,to{transform:translate(127.165px,122.821253px) rotate(720deg)}}</style><defs><linearGradient id="eTp3BH7SVNX42-fill" x1="30.89" x2="0" y1="5.79" y2="5.79" gradientUnits="userSpaceOnUse" spreadMethod="pad"><stop id="eTp3BH7SVNX42-fill-0" offset="0%" stop-color="#ffeb3b"/><stop id="eTp3BH7SVNX42-fill-1" offset="100%" stop-color="#ffc107"/></linearGradient><linearGradient id="eTp3BH7SVNX43-fill" x1="169" x2="30" y1="61.78" y2="61.78" gradientUnits="userSpaceOnUse" spreadMethod="pad"><stop id="eTp3BH7SVNX43-fill-0" offset="0%" stop-color="#ffeb3b"/><stop id="eTp3BH7SVNX43-fill-1" offset="100%" stop-color="#ffc107"/></linearGradient><filter id="eTp3BH7SVNX2-filter" width="400%" height="400%" x="-150%" y="-150%"><feComponentTransfer id="eTp3BH7SVNX2-filter-brightness-0" result="result"><feFuncR id="eTp3BH7SVNX2-filter-brightness-0-R" slope="10" type="linear"/><feFuncG id="eTp3BH7SVNX2-filter-brightness-0-G" slope="10" type="linear"/><feFuncB id="eTp3BH7SVNX2-filter-brightness-0-B" slope="10" type="linear"/></feComponentTransfer></filter></defs><g clip-path="url(#eTp3BH7SVNX35)" filter="url(#eTp3BH7SVNX2-filter)" style="animation:eTp3BH7SVNX2_c_o 2500ms linear infinite normal forwards" transform="matrix(1.1 0 0 1.1 -9.75 -7.66)"><g style="animation:eTp3BH7SVNX3_tr__tr 2500ms linear infinite normal forwards" transform="translate(124 117)"><g transform="translate(-50 -50)"><g style="animation:eTp3BH7SVNX4_c_o 2500ms linear infinite normal forwards" transform="matrix(1.5 0 0 1.5 113.37 375.55)"><g transform="matrix(.52 0 0 .52 -42.7 -164.2)"><path fill="#fff" stroke="#c33" stroke-width="0" d="M0-5.3A5.3 5.3 0 1 0 0 5.3 5.3 5.3 0 0 0 0-5.3Z"/></g></g></g></g><g style="animation:eTp3BH7SVNX7_tr__tr 2500ms linear infinite normal forwards" transform="translate(124 117)"><g transform="translate(-50 -50)"><g style="animation:eTp3BH7SVNX8_c_o 2500ms linear infinite normal forwards" transform="rotate(58 -123.66 -51.54) scale(.61)"><g transform="matrix(.52 0 0 .52 -42.7 -164.2)"><path fill="#ffc70f" stroke="#c33" stroke-width="0" d="M0-5.3A5.3 5.3 0 1 0 0 5.3 5.3 5.3 0 0 0 0-5.3Z"/></g></g></g></g><g style="animation:eTp3BH7SVNX11_tr__tr 2500ms linear infinite normal forwards" transform="translate(124 117)"><g transform="translate(-50 -50)"><g style="animation:eTp3BH7SVNX12_c_o 2500ms linear infinite normal forwards" transform="rotate(58 -208.9 61.4) scale(.61)"><g transform="matrix(.52 0 0 .52 -42.7 -164.2)"><path fill="#ffe635" stroke="#c33" stroke-width="0" d="M0-5.3A5.3 5.3 0 1 0 0 5.3 5.3 5.3 0 0 0 0-5.3Z"/></g></g></g></g><g style="animation:eTp3BH7SVNX15_tr__tr 2500ms linear infinite normal forwards" transform="translate(124 117)"><g transform="translate(-50 -50)"><g style="animation:eTp3BH7SVNX16_c_o 2500ms linear infinite normal forwards" transform="rotate(58 -63.34 86.38) scale(.61)"><g transform="matrix(.52 0 0 .52 -42.7 -164.2)"><path fill="#fff" stroke="#c33" stroke-width="0" d="M0-5.3A5.3 5.3 0 1 0 0 5.3 5.3 5.3 0 0 0 0-5.3Z"/></g></g></g></g><g style="animation:eTp3BH7SVNX19_tr__tr 2500ms linear infinite normal forwards" transform="translate(124 117)"><g transform="translate(-50 -50)"><g style="animation:eTp3BH7SVNX20_c_o 2500ms linear infinite normal forwards" transform="matrix(1.03 0 0 1.03 182.85 225.64)"><g transform="matrix(.52 0 0 .52 -42.7 -164.2)"><path fill="#fff" stroke="#c33" stroke-width="0" d="M0-5.3A5.3 5.3 0 1 0 0 5.3 5.3 5.3 0 0 0 0-5.3Z"/></g></g></g></g><g style="animation:eTp3BH7SVNX23_tr__tr 2500ms linear infinite normal forwards" transform="translate(124 117)"><g transform="translate(-50 -50)"><g style="animation:eTp3BH7SVNX24_c_o 2500ms linear infinite normal forwards" transform="matrix(1.03 0 0 1.03 72.85 149.64)"><g transform="matrix(.52 0 0 .52 -42.7 -164.2)"><path fill="#fff" stroke="#c33" stroke-width="0" d="M0-5.3A5.3 5.3 0 1 0 0 5.3 5.3 5.3 0 0 0 0-5.3Z"/></g></g></g></g><g style="animation:eTp3BH7SVNX27_tr__tr 2500ms linear infinite normal forwards" transform="translate(124 117)"><g transform="translate(-50 -50)"><g style="animation:eTp3BH7SVNX28_c_o 2500ms linear infinite normal forwards" transform="matrix(1.03 0 0 1.03 132.85 141.64)"><g transform="matrix(.52 0 0 .52 -42.7 -164.2)"><path fill="#ffda26" stroke="#c33" stroke-width="0" d="M0-5.3A5.3 5.3 0 1 0 0 5.3 5.3 5.3 0 0 0 0-5.3Z"/></g></g></g></g><g style="animation:eTp3BH7SVNX31_tr__tr 2500ms linear infinite normal forwards" transform="translate(124 117)"><g transform="translate(-50 -50)"><g style="animation:eTp3BH7SVNX32_c_o 2500ms linear infinite normal forwards" transform="matrix(.62 0 0 .62 -2.72 178.58)"><g transform="matrix(.52 0 0 .52 -42.7 -164.2)"><path fill="#ffc30a" stroke="#c33" stroke-width="0" d="M0-5.3A5.3 5.3 0 1 0 0 5.3 5.3 5.3 0 0 0 0-5.3Z"/></g></g></g></g><clipPath id="eTp3BH7SVNX35"><rect width="245" height="235" fill="none" stroke-width="0" rx="0" ry="0"/></clipPath></g><g style="animation:eTp3BH7SVNX37_tr__tr 2500ms linear infinite normal forwards" transform="translate(127.17 122.82)"><g opacity=".58" transform="matrix(1.3 0 0 1.3 -65 -65)"><g transform="matrix(.62 0 0 .62 95.28 218.58)"><g transform="matrix(.52 0 0 .52 -42.7 -164.2)"><path fill="#fddf00" stroke-width="0" d="M0-5.3A5.3 5.3 0 1 0 0 5.3 5.3 5.3 0 0 0 0-5.3Z" opacity=".78"/></g></g></g></g><g transform="matrix(.4 0 0 .4 85.14 69.49)"><rect width="30.89" height="11.58" fill="url(#eTp3BH7SVNX42-fill)" rx="5.79" ry="5.79" transform="translate(84.06 127.42)"/><path fill="url(#eTp3BH7SVNX43-fill)" fill-rule="evenodd" d="M112.56 66.96c3.68 2.53 10.64 10.05-.1 26.95 0 0-5.17-2.44-8.26-9.42a33.1 33.1 0 0 1-4.66 4.32l-.04-.04a38.01 38.01 0 0 1-4.53-4.53c-3.07 7.17-8.36 9.67-8.36 9.67-10.72-16.86-3.81-24.39-.13-26.93.6-.42 1.12-.7 1.46-.87a33.1 33.1 0 0 1 .03-3.15c.88-15.2 11.57-28.21 11.57-28.21s10.18 13.37 11.42 28.27c.08 1.01.13 2.04.12 3.06.34.17.86.45 1.48.88Zm15.46-12.35a34.75 34.75 0 1 0-57.03 0 34.75 34.75 0 1 0 28.52 34.2A34.75 34.75 0 1 0 128 54.6Z" clip-rule="evenodd"/><path fill="#fff" d="M146.37 243.97c-.32 0-.62-.1-.9-.35a1.26 1.26 0 0 1-.34-.88V232.3l-11.48-20.77a1.9 1.9 0 0 1-.14-.53c0-.26.1-.48.3-.69.22-.24.49-.34.78-.34h6.18c.64 0 1.24.34 1.73 1l7.06 12.52 7.12-12.51c.41-.7.98-1.01 1.74-1.01h6.17c.3 0 .54.1.73.34.2.18.3.43.3.7 0 .15-.02.34-.1.52l-11.49 20.77v10.44c0 .35-.13.64-.4.88a1.2 1.2 0 0 1-.9.35h-6.36ZM122.7 231l-4.6-12.8-4.61 12.8h9.2Zm-20.82 12.96c-.28 0-.52-.1-.73-.3a1.18 1.18 0 0 1-.25-1.13l11.62-31.16c.1-.4.32-.72.65-.98.32-.27.75-.4 1.3-.4h7.3c.52 0 .95.13 1.3.4.33.26.54.58.65.98l11.56 31.16.1.42c0 .26-.1.5-.35.72-.19.18-.43.29-.73.29h-6.09c-.78 0-1.32-.35-1.57-1.01l-1.92-4.94h-13.2l-1.88 4.94c-.27.69-.81 1-1.62 1h-6.15Zm-29.24 0c-.32 0-.62-.1-.9-.35a1.26 1.26 0 0 1-.35-.88v-31.52c0-.35.11-.64.35-.88.28-.24.57-.35.9-.35h6.52c.35 0 .65.1.9.35s.35.5.35.88v25.42h14.97c.35 0 .65.13.9.4.24.23.35.5.35.87v4.87c0 .31-.11.6-.35.87a1.2 1.2 0 0 1-.9.35H72.63v-.03ZM53.8 225.42a5 5 0 0 0 3.41-1.06 4.2 4.2 0 0 0 1.25-3.24c0-1.33-.41-2.39-1.2-3.16-.75-.8-1.91-1.22-3.46-1.22H48v8.69h5.8-.01Zm-13.62 18.54c-.32 0-.62-.1-.9-.35a1.26 1.26 0 0 1-.35-.88v-31.52c0-.35.11-.64.35-.88.28-.24.57-.35.9-.35h13.86c4.22 0 7.53.95 9.94 2.87 2.43 1.91 3.65 4.7 3.65 8.33s-1.19 6.35-3.6 8.2c-2.4 1.82-5.74 2.72-9.98 2.72h-5.88v10.62c0 .35-.13.64-.4.88a1.2 1.2 0 0 1-.9.35h-6.69Zm142.02-45.5c-.33 0-.63-.1-.9-.35a1.26 1.26 0 0 1-.35-.88v-25.12h-8.8c-.32 0-.62-.1-.9-.34a1.26 1.26 0 0 1-.34-.88v-5.18c0-.35.1-.64.35-.88.27-.24.56-.35.9-.35h26.6c.35 0 .65.11.9.35.22.24.35.5.35.88v5.18c0 .34-.1.64-.35.88a1.2 1.2 0 0 1-.9.34h-8.8v25.13c0 .31-.1.6-.34.87-.24.24-.54.35-.9.35h-6.52Zm-40.2 0c-.33 0-.63-.1-.9-.35a1.25 1.25 0 0 1-.35-.88v-31.52c0-.35.1-.64.35-.88.27-.24.57-.35.9-.35h23.1c.34 0 .64.11.89.35s.35.5.35.88v4.56c0 .32-.11.62-.35.88-.24.24-.54.35-.9.35H149.3v6.56H164c.34 0 .64.13.89.4.24.24.35.5.35.88v4.22c0 .32-.1.62-.35.88-.24.24-.54.35-.9.35h-14.7v6.74h16.17c.35 0 .64.11.9.35.23.24.34.5.34.88v4.56c0 .32-.1.62-.35.88-.24.24-.54.35-.9.35H142v-.09Zm-33.8 0c-.32 0-.62-.1-.89-.35a1.26 1.26 0 0 1-.35-.88v-31.52c0-.35.11-.64.35-.88.27-.21.57-.35.9-.35h6.22c.35 0 .65.11.9.35.21.24.35.5.35.88v10.78l9.15-11.08c.4-.61 1.03-.93 1.92-.93h7.12c.28 0 .55.12.73.35.19.18.3.42.3.69 0 .24-.06.42-.14.59l-11.85 14.65 12.75 16.13c.13.13.19.31.19.58 0 .28-.11.51-.3.72-.2.19-.43.3-.73.3h-7.36a2.4 2.4 0 0 1-1.98-.99l-9.8-11.98v11.74c0 .35-.11.64-.35.88a1.2 1.2 0 0 1-.9.35h-6.22v-.03Zm-22.76.48c-4.7 0-8.41-1.12-11.07-3.35-2.63-2.25-4.04-5.52-4.2-9.8a147.34 147.34 0 0 1 0-8.63c.17-4.2 1.6-7.44 4.3-9.7 2.72-2.28 6.37-3.45 11-3.45 2.9 0 5.5.48 7.82 1.46 2.3.93 4.12 2.28 5.45 4.06a9.97 9.97 0 0 1 2.08 6.16v.11c0 .26-.1.48-.35.69-.19.16-.43.24-.7.24h-6.7c-.42 0-.75-.08-1-.24a2.13 2.13 0 0 1-.6-1.01c-.45-1.65-1.18-2.8-2.16-3.46-1-.69-2.3-1.03-3.9-1.03-3.9 0-5.9 2.12-6.04 6.4a137.65 137.65 0 0 0 0 8.15c.14 4.27 2.14 6.4 6.04 6.4 1.63 0 2.93-.35 3.96-1.01a5.67 5.67 0 0 0 2.13-3.46 2 2 0 0 1 .54-.98c.24-.19.57-.3 1.03-.3h6.69a1 1 0 0 1 .73.3c.24.18.32.42.3.72a10.19 10.19 0 0 1-2.09 6.21 12.77 12.77 0 0 1-5.44 4.06c-2.3.99-4.9 1.43-7.82 1.43v.03Zm-36.24-6.98a5.8 5.8 0 0 0 4.3-1.6c1.08-1.06 1.68-2.7 1.73-4.91.06-1.89.11-3.21.11-3.99 0-.85-.02-2.17-.1-3.98-.06-2.18-.63-3.8-1.74-4.89a5.88 5.88 0 0 0-4.3-1.59 5.8 5.8 0 0 0-4.3 1.6c-1.06 1.05-1.64 2.7-1.74 4.9a132.7 132.7 0 0 0 0 7.98c.1 2.2.67 3.82 1.73 4.9a5.89 5.89 0 0 0 4.3 1.58Zm0 6.98c-4.66 0-8.31-1.12-11-3.35-2.68-2.23-4.08-5.52-4.25-9.85a151 151 0 0 1 0-8.4c.17-4.27 1.6-7.53 4.3-9.85 2.74-2.33 6.4-3.5 10.94-3.5 4.54 0 8.2 1.17 10.93 3.5 2.74 2.3 4.17 5.58 4.3 9.86.06 1.89.11 3.29.11 4.22 0 .94-.02 2.29-.1 4.17-.17 4.33-1.57 7.62-4.26 9.85-2.68 2.23-6.33 3.35-10.99 3.35h.01Zm-34.6-19.33c1.51 0 2.68-.35 3.46-1.06.79-.75 1.2-1.76 1.2-3.06s-.41-2.31-1.2-3.06c-.75-.77-1.92-1.16-3.46-1.16H8.9v8.33h5.69ZM1.25 198.48c-.33 0-.63-.11-.9-.35a1.26 1.26 0 0 1-.35-.88v-31.53c0-.34.1-.63.35-.87.27-.24.57-.35.9-.35H14.7c4.33 0 7.68.98 10.1 2.92 2.43 1.92 3.65 4.63 3.65 8.16a9.9 9.9 0 0 1-1.63 5.76 10.3 10.3 0 0 1-4.5 3.64l6.78 11.92c.1.19.13.38.13.54 0 .26-.1.5-.35.72a1 1 0 0 1-.7.29H21.6c-.95 0-1.63-.43-2.03-1.3l-5.63-10.68H8.9v10.78c0 .34-.13.63-.4.87a1.2 1.2 0 0 1-.9.35H1.24Z"/></g></svg>