<svg width="1161" height="1161" viewBox="0 0 1161 1161" fill="none" xmlns="http://www.w3.org/2000/svg">
<g clip-path="url(#clip0_14399_57120)">
<path d="M451.412 16.7162C139.473 88.7331 -55.0228 399.991 16.9941 711.931C89.011 1023.87 400.269 1218.37 712.209 1146.35C1024.15 1074.33 1218.64 763.074 1146.63 451.135C1074.61 139.195 763.352 -55.3008 451.412 16.7162Z" fill="url(#paint0_radial_14399_57120)"/>
<path d="M17.2464 713.068C-55.4416 401.284 138.387 89.5882 450.171 16.9002C761.973 -55.7878 1073.63 138.041 1146.32 449.825C1219.01 761.609 1025.18 1073.29 713.397 1145.98C401.613 1218.66 89.9344 1024.83 17.2464 713.05V713.068Z" fill="url(#paint1_linear_14399_57120)"/>
<path d="M450.398 17.874C761.662 -54.6886 1072.79 138.806 1145.35 450.052C1217.91 761.298 1024.42 1072.44 713.169 1145C401.923 1217.56 90.7828 1024.07 18.2202 712.823H18.2153C-54.3356 401.583 139.158 90.4353 450.398 17.874Z" stroke="#EECE70" stroke-opacity="0.65" stroke-width="2" style="mix-blend-mode:overlay"/>
<mask id="mask0_14399_57120" style="mask-type:luminance" maskUnits="userSpaceOnUse" x="1" y="1" width="1161" height="1161">
<path d="M17.2459 713.068C-55.4421 401.284 138.387 89.5882 450.171 16.9002C761.972 -55.7878 1073.63 138.041 1146.32 449.825C1219.01 761.609 1025.18 1073.29 713.396 1145.98C401.612 1218.66 89.9339 1024.83 17.2459 713.05V713.068Z" fill="white"/>
</mask>
<g mask="url(#mask0_14399_57120)">
<g style="mix-blend-mode:overlay">
<path d="M20.6778 712.276C-51.5702 402.358 141.079 92.5804 450.98 20.3324L449.379 13.4683C135.694 86.614 -59.2965 400.193 13.8139 713.86L20.6778 712.276ZM450.98 20.35C760.864 -51.898 1070.66 140.752 1142.89 450.652L1149.75 449.051C1076.63 135.348 763.063 -59.6596 449.379 13.486L450.963 20.35H450.98ZM1142.89 450.652C1215.14 760.536 1022.49 1070.31 712.587 1142.56L714.188 1149.43C1027.87 1076.3 1222.88 762.736 1149.75 449.051L1142.89 450.635V450.652ZM712.587 1142.56C402.703 1214.81 92.9258 1022.16 20.6778 712.276L13.8139 713.878C86.9419 1027.55 400.521 1222.55 714.206 1149.43L712.622 1142.56H712.587Z" fill="#BABABA" fill-opacity="0.7"/>
</g>
</g>
<path d="M446.107 76.0057C163.122 151.831 -4.81334 442.704 71.0121 725.689C146.838 1008.67 437.711 1176.61 720.695 1100.78C1003.68 1024.96 1171.62 734.085 1095.79 451.1C1019.96 168.116 729.091 0.180239 446.107 76.0057Z" fill="url(#paint2_linear_14399_57120)"/>
<g style="mix-blend-mode:soft-light">
<path fill-rule="evenodd" clip-rule="evenodd" d="M133.23 875.621C-25.3988 626.986 47.5532 296.845 296.188 138.217C544.806 -20.4299 874.964 52.5222 1033.59 301.157C1192.22 549.793 1119.27 879.951 870.635 1038.58C622.017 1197.21 291.859 1124.26 133.23 875.621ZM298.089 141.191C51.1084 298.781 -21.3508 626.74 136.222 873.703C293.795 1120.7 621.753 1193.16 868.734 1035.59C1115.71 878.015 1188.17 550.039 1030.6 303.076C873.028 56.0774 545.07 -16.3819 298.089 141.191Z" fill="white" fill-opacity="0.45"/>
</g>
<path d="M580.479 83.5145C301.645 83.5145 75.6055 309.554 75.6055 588.388C75.6055 867.222 301.645 1093.26 580.479 1093.26C859.313 1093.26 1085.35 867.222 1085.35 588.388C1085.35 309.554 859.313 83.5146 580.479 83.5145Z" fill="url(#paint3_linear_14399_57120)"/>
</g>
<defs>
<radialGradient id="paint0_radial_14399_57120" cx="0" cy="0" r="1" gradientUnits="userSpaceOnUse" gradientTransform="translate(583.355 584.319) rotate(-135) scale(811.061)">
<stop offset="0.72" stop-color="#AC3020"/>
<stop offset="1" stop-color="#1E0035"/>
</radialGradient>
<linearGradient id="paint1_linear_14399_57120" x1="934.649" y1="62.7712" x2="671.851" y2="1190.05" gradientUnits="userSpaceOnUse">
<stop offset="0.00520833" stop-color="#323658"/>
<stop offset="0.046875" stop-color="#232745"/>
<stop offset="0.104167" stop-color="#383D65"/>
<stop offset="0.10663" stop-color="#383D66"/>
<stop offset="0.15625" stop-color="#2B2F4B"/>
<stop offset="0.15635" stop-color="#2A2E4B"/>
<stop offset="0.185276" stop-color="#1C1E36"/>
<stop offset="0.193723" stop-color="#1B1D33"/>
<stop offset="0.267344" stop-color="#2C304F"/>
<stop offset="0.302346" stop-color="#363B61"/>
<stop offset="0.350823" stop-color="#424670"/>
<stop offset="0.394512" stop-color="#515580"/>
<stop offset="0.435361" stop-color="#61679C"/>
<stop offset="0.456893" stop-color="#6B70A3"/>
<stop offset="0.482129" stop-color="#6F75AB"/>
<stop offset="0.549869" stop-color="#525894"/>
<stop offset="0.573113" stop-color="#383E78"/>
<stop offset="0.586457" stop-color="#2B2F54"/>
<stop offset="0.603137" stop-color="#202341"/>
<stop offset="0.648098" stop-color="#171A33"/>
<stop offset="0.707167" stop-color="#1A1D3D"/>
<stop offset="0.748336" stop-color="#1C1F3C"/>
<stop offset="0.802509" stop-color="#252A59"/>
<stop offset="0.832413" stop-color="#3C427A"/>
<stop offset="0.84486" stop-color="#4E569D"/>
<stop offset="0.846398" stop-color="#787DB3"/>
<stop offset="0.882477" stop-color="#565C99"/>
<stop offset="0.924487" stop-color="#414673"/>
<stop offset="0.955927" stop-color="#2D3154"/>
<stop offset="0.992723" stop-color="#262A4D"/>
</linearGradient>
<linearGradient id="paint2_linear_14399_57120" x1="720.695" y1="1100.78" x2="446.107" y2="76.0057" gradientUnits="userSpaceOnUse">
<stop stop-color="#1D203D"/>
<stop offset="0.06" stop-color="#151729"/>
<stop offset="0.07" stop-color="#161938"/>
<stop offset="0.17" stop-color="#161933"/>
<stop offset="0.37" stop-color="#1D2240"/>
<stop offset="0.48" stop-color="#14172B"/>
<stop offset="0.54" stop-color="#15192E"/>
<stop offset="0.63" stop-color="#14172B"/>
<stop offset="0.78" stop-color="#1B203B"/>
<stop offset="0.89" stop-color="#1A1D3D"/>
<stop offset="1" stop-color="#11142A"/>
</linearGradient>
<linearGradient id="paint3_linear_14399_57120" x1="1085.35" y1="83.5163" x2="75.6054" y2="83.5162" gradientUnits="userSpaceOnUse">
<stop stop-color="#171E37"/>
<stop offset="1" stop-color="#22264D"/>
</linearGradient>
<clipPath id="clip0_14399_57120">
<rect width="1161" height="1161" fill="white"/>
</clipPath>
</defs>
</svg>
